<svg width="88" height="88" viewBox="0 0 88 88" fill="none" xmlns="http://www.w3.org/2000/svg">
<path fill-rule="evenodd" clip-rule="evenodd" d="M49.5731 1.07387L49.1798 3.23629L50.9531 3.55876C51.8291 3.71814 52.46 4.04151 52.8458 4.52903C53.2316 5.01655 53.3576 5.62815 53.2238 6.36383C53.0899 7.09952 52.7575 7.62328 52.2262 7.93529C51.6951 8.24724 50.9915 8.32352 50.1154 8.16424L46.435 7.49476L47.6658 0.726972L49.5731 1.07387ZM50.3761 4.8113L48.9408 4.55023L48.5812 6.52767L50.0164 6.78874C50.4118 6.86058 50.7101 6.82699 50.9111 6.68783C51.1164 6.54951 51.2489 6.3166 51.3084 5.98907C51.3641 5.68296 51.3224 5.42932 51.1832 5.22832C51.0448 5.02297 50.7758 4.88396 50.3761 4.8113Z" fill="white"/>
<path d="M37.8171 0.867015L37.872 2.31819L40.1849 2.23078L40.39 7.65342L42.3271 7.58022L42.122 2.15749L44.4284 2.07031L44.3736 0.619034L37.8171 0.867015Z" fill="white"/>
<path fill-rule="evenodd" clip-rule="evenodd" d="M28.9203 8.08549C28.722 7.35552 28.8664 6.72504 29.3537 6.19407C29.8409 5.66299 30.5767 5.26379 31.561 4.99635L33.0564 4.59003L32.9459 4.18338C32.8608 3.87054 32.6971 3.65523 32.4546 3.53748C32.2163 3.41858 31.874 3.41982 31.4277 3.5411C30.9856 3.66121 30.6821 3.82207 30.5175 4.02352C30.3569 4.22399 30.3083 4.4409 30.3718 4.67448L30.3939 4.75583L28.5545 5.25565L28.5324 5.17431C28.3601 4.54031 28.5135 3.95889 28.9924 3.43014C29.4754 2.90031 30.1966 2.50496 31.1559 2.24431C32.1111 1.98482 32.9067 1.97025 33.5425 2.20056C34.1784 2.4309 34.6001 2.9277 34.8075 3.69091L35.6422 6.7629C35.7147 7.02986 35.8088 7.27752 35.9247 7.50583C36.0446 7.73296 36.1695 7.92073 36.2995 8.06907L36.3267 8.16917L34.4934 8.66733C34.4174 8.58503 34.3348 8.47077 34.2458 8.32476C34.1569 8.17867 34.0858 8.03239 34.0325 7.88557C33.9597 8.17852 33.7457 8.47856 33.3902 8.78566C33.0378 9.08745 32.5591 9.32057 31.9543 9.4849C31.2285 9.68206 30.5871 9.67041 30.0301 9.45007C29.4761 9.22441 29.1062 8.7695 28.9203 8.08549ZM30.7502 7.42704C30.8341 7.73564 30.9967 7.94683 31.2381 8.06034C31.4794 8.17393 31.8191 8.17116 32.2571 8.05223C32.7116 7.9287 33.0615 7.69928 33.3062 7.36407C33.5541 7.02348 33.631 6.68011 33.537 6.33393L33.3601 5.68319L32.1151 6.02148C31.577 6.16771 31.193 6.36161 30.9631 6.60328C30.7373 6.84378 30.6664 7.11837 30.7502 7.42704Z" fill="white"/>
<path d="M19.1826 7.80176L19.8684 9.08189L21.9085 7.98899L24.471 12.7724L26.1798 11.857L23.6174 7.07362L25.6519 5.98376L24.9661 4.70353L19.1826 7.80176Z" fill="white"/>
<path d="M14.0199 16.6472L13.8852 16.4895C13.1837 15.6677 12.8847 14.7948 12.9883 13.871C13.0952 12.9444 13.5793 12.1134 14.4406 11.3782C15.2592 10.6794 16.0432 10.3398 16.7929 10.3591C17.543 10.3724 18.1514 10.6258 18.6183 11.1195L18.6998 11.1949L17.245 12.4367L17.1945 12.3774C16.9812 12.1277 16.7185 11.9996 16.4063 11.9933C16.094 11.9871 15.7456 12.1481 15.361 12.4764C14.9139 12.858 14.6967 13.2793 14.7093 13.7402C14.7253 14.1982 14.9325 14.6607 15.331 15.1275L15.5961 15.4381C15.9946 15.9049 16.4171 16.1836 16.8638 16.274C17.3136 16.3617 17.7655 16.2119 18.2191 15.8246C18.6169 15.4851 18.8311 15.1602 18.8617 14.8499C18.8924 14.5396 18.8052 14.2644 18.6004 14.0244L18.5541 13.9703L20.0038 12.7328L20.0544 12.7919C20.4949 13.308 20.6605 13.9481 20.5511 14.712C20.4418 15.476 19.9777 16.2072 19.1592 16.906C18.3012 17.6384 17.4062 17.9847 16.4742 17.9448C15.5396 17.9016 14.7214 17.4691 14.0199 16.6472Z" fill="white"/>
<path d="M5.38601 22.2591L10.9549 26.2972L12.0929 24.7278L10.523 20.5864C10.4494 20.4155 10.3821 20.2654 10.3212 20.1358C10.2594 20.0001 10.1965 19.8771 10.1325 19.7666L10.1667 19.7194C10.2666 19.8025 10.387 19.8978 10.5279 20.0054C10.6689 20.1129 10.7919 20.2047 10.8968 20.2808L13.7941 22.3816L14.9283 20.8176L9.35936 16.7794L8.22141 18.3488L9.77541 22.4789C9.84557 22.6472 9.91333 22.8004 9.97871 22.9386C10.0405 23.0742 10.1039 23.2002 10.169 23.3168L10.1294 23.3602C10.0355 23.2762 9.91647 23.1791 9.77198 23.069C9.63016 22.9554 9.50493 22.8593 9.39645 22.7806L6.52019 20.6951L5.38601 22.2591Z" fill="white"/>
<path d="M5.40389 31.4752L3.31129 30.5268L4.14177 28.4499L9.18047 30.4647L9.90015 28.6647L3.51302 26.1108L1.34421 31.5347L4.56969 32.985C5.24075 33.286 5.68459 33.5379 5.90134 33.741C6.11568 33.9384 6.16426 34.1836 6.04714 34.4765C6.01334 34.5608 5.97611 34.6367 5.93513 34.7041C5.89585 34.7675 5.84851 34.8277 5.79315 34.8847L7.21378 35.4528C7.28928 35.3805 7.3643 35.2802 7.43895 35.1518C7.51352 35.0233 7.58218 34.8809 7.64479 34.7243C7.94165 33.9819 7.91548 33.3779 7.56622 32.9124C7.21307 32.4453 6.49225 31.9663 5.40389 31.4752Z" fill="white"/>
<path fill-rule="evenodd" clip-rule="evenodd" d="M61.4828 4.34977L58.1683 10.3774L61.7416 12.3424C62.4916 12.7547 63.1363 12.9144 63.6757 12.8214C64.219 12.7305 64.6364 12.4199 64.928 11.8896C65.1467 11.492 65.1993 11.1091 65.0861 10.7409C64.9749 10.3691 64.7269 10.0305 64.3424 9.72531L64.3518 9.70826C64.7632 9.82111 65.1318 9.81903 65.4576 9.70221C65.787 9.58741 66.0549 9.34251 66.2611 8.96761C66.5359 8.4677 66.5605 7.98791 66.3347 7.52831C66.1111 7.06503 65.6092 6.61884 64.829 6.1898L61.4828 4.34977ZM63.2047 8.47077L61.8128 7.70542L62.5594 6.34766L63.9513 7.11302C64.2484 7.28136 64.4331 7.45684 64.5052 7.63953C64.5774 7.82234 64.5563 8.0178 64.4417 8.22608C64.3167 8.45334 64.1536 8.59298 63.9523 8.64513C63.7531 8.69338 63.5039 8.63532 63.2047 8.47077ZM61.9943 11.0755L60.432 10.2164L61.2412 8.74505L62.8034 9.60413C63.1216 9.77911 63.3124 9.97031 63.3758 10.1779C63.4452 10.3837 63.4184 10.5983 63.2955 10.8218C63.1685 11.0528 62.9984 11.1961 62.7854 11.2515C62.5723 11.307 62.3087 11.2483 61.9943 11.0755Z" fill="white"/>
<path d="M70.1273 9.39888L71.56 10.7048L69.7781 12.6597L71.8241 14.5247L73.606 12.5697L75.0386 13.8755L70.4048 18.9593L68.9721 17.6535L70.8501 15.5931L68.8041 13.7282L66.9261 15.7885L65.4935 14.4827L70.1273 9.39888Z" fill="white"/>
<path d="M77.9001 16.9178L72.1699 20.7235L73.2424 22.3383L77.6714 22.3155C77.8572 22.3062 78.0214 22.2957 78.1641 22.2839C78.3127 22.2734 78.45 22.2575 78.576 22.2361L78.6082 22.2847C78.4955 22.3492 78.364 22.4287 78.2141 22.5232C78.064 22.6176 77.935 22.7007 77.827 22.7725L74.8458 24.7525L75.9147 26.3619L81.6449 22.5561L80.5723 20.9413L76.1597 20.9534C75.9774 20.9602 75.8102 20.9702 75.6579 20.9831C75.5093 20.9936 75.369 21.009 75.2371 21.0291L75.2102 20.977C75.3218 20.9184 75.4544 20.8407 75.608 20.7439C75.764 20.6506 75.8978 20.567 76.0094 20.4929L78.969 18.5272L77.9001 16.9178Z" fill="white"/>
<path d="M77.9853 31.371C77.5692 30.2299 77.476 29.3184 77.7058 28.6366C77.9411 27.9573 78.3877 27.4977 79.0456 27.2578L79.076 27.2466L79.7224 29.0191L79.6919 29.0302C79.4239 29.128 79.2277 29.3215 79.1031 29.6108C78.98 29.904 79.0185 30.3248 79.2184 30.8729C79.3887 31.34 79.5905 31.6597 79.8236 31.8323C80.0623 32.0075 80.3157 32.0462 80.5837 31.9485C80.8232 31.8612 80.9791 31.7145 81.0514 31.5088C81.1276 31.3016 81.1028 31.0254 80.9769 30.6802L80.5148 29.4134L81.7087 28.9779L82.1085 30.0743C82.2344 30.4195 82.3869 30.6422 82.5661 30.7425C82.7508 30.8453 82.963 30.853 83.2026 30.7656C83.4503 30.6753 83.6056 30.5083 83.6685 30.2645C83.7314 30.0207 83.6918 29.7039 83.5497 29.3141C83.3778 28.8431 83.1558 28.5306 82.8836 28.3769C82.6167 28.2258 82.3311 28.2057 82.0266 28.3168L81.9961 28.3279L81.3497 26.5555L81.3801 26.5444C82.0786 26.2896 82.7343 26.3656 83.3473 26.7724C83.9603 27.1791 84.4579 27.9063 84.8399 28.9539C85.1983 29.9366 85.2998 30.7323 85.1446 31.341C84.9934 31.9482 84.6376 32.354 84.0772 32.5584C83.6996 32.6961 83.3425 32.6883 83.006 32.535C82.6708 32.3858 82.3643 32.1065 82.0862 31.6973L82.0679 31.7039C82.1789 32.2477 82.1561 32.7023 81.9994 33.0677C81.8484 33.4357 81.5658 33.6952 81.1516 33.8462C80.51 34.0802 79.9107 33.9698 79.3538 33.515C78.7984 33.0642 78.3422 32.3496 77.9853 31.371Z" fill="white"/>
<path d="M82.1289 54.4169L84.2532 55.292L83.4954 57.3965L78.3897 55.5581L77.7329 57.382L84.2049 59.7124L86.184 54.2165L82.9101 52.879C82.229 52.6016 81.7767 52.3653 81.553 52.1699C81.3319 51.98 81.2748 51.7366 81.3817 51.4398C81.4125 51.3543 81.4472 51.2772 81.4857 51.2085C81.5228 51.1438 81.568 51.0819 81.6214 51.023L80.1818 50.5047C80.109 50.5795 80.0374 50.6824 79.9673 50.8133C79.8972 50.9443 79.8335 51.089 79.7765 51.2476C79.5056 51.9999 79.5527 52.6026 79.9179 53.0558C80.2871 53.5102 81.024 53.964 82.1289 54.4169Z" fill="white"/>
<path d="M76.7774 59.7478L82.4906 63.5788L81.4146 65.1835L78.4638 63.2048C78.3525 63.1302 78.2239 63.0388 78.0779 62.9304C77.9296 62.8257 77.8069 62.7331 77.71 62.6525L77.6721 62.6973C77.7413 62.8114 77.8094 62.9351 77.8761 63.0684C77.9465 63.2041 78.0198 63.3547 78.0961 63.5203L79.8006 67.5905L78.721 69.2005L73.0077 65.3695L74.0837 63.7648L77.0561 65.758C77.1638 65.8303 77.2901 65.9175 77.4348 66.0198C77.5797 66.122 77.7035 66.2129 77.8063 66.2922L77.8388 66.2438C77.7708 66.1357 77.7034 66.0151 77.6367 65.8818C77.571 65.7546 77.4983 65.6069 77.4184 65.4389L75.6978 61.3578L76.7774 59.7478Z" fill="white"/>
<path d="M74.1213 69.7792L73.9812 69.6262C73.2513 68.8294 72.4185 68.4258 71.4829 68.4154C70.5502 68.4082 69.6678 68.7856 68.836 69.5476C68.0424 70.2746 67.6043 71.0217 67.5217 71.7891C67.4392 72.5564 67.6271 73.1902 68.0855 73.6906L68.138 73.748L69.5435 72.4604L69.4954 72.4078C69.2823 72.1751 69.1855 71.9032 69.2054 71.592C69.2251 71.2809 69.4277 70.9486 69.8135 70.5954C70.2533 70.1925 70.6994 70.027 71.1522 70.0988C71.6016 70.1735 72.0337 70.4373 72.4483 70.8897L72.7241 71.191C73.1387 71.6436 73.362 72.0985 73.394 72.5556C73.4227 73.0158 73.2204 73.4444 72.787 73.8415C72.4141 74.1831 72.0715 74.3562 71.7593 74.3608C71.4471 74.3655 71.1799 74.2467 70.9581 74.0046L70.9056 73.9472L69.4953 75.2391L69.5792 75.3116C70.0631 75.7887 70.6801 76.0206 71.4301 76.0076C72.18 76.0007 72.9517 75.6338 73.7452 74.9067C74.5803 74.1418 75.035 73.2944 75.1094 72.3647C75.1806 71.4378 74.8512 70.5759 74.1213 69.7792Z" fill="white"/>
<path d="M68.3924 77.4109L69.1177 78.6692L63.433 81.9455L62.7079 80.6873L64.7076 79.5347L61.9979 74.8331L63.6774 73.8652L66.3871 78.5667L68.3924 77.4109Z" fill="white"/>
<path fill-rule="evenodd" clip-rule="evenodd" d="M59.1461 80.552C59.6156 80.0053 59.7392 79.3704 59.517 78.6473C59.3087 77.9699 58.924 77.5274 58.3629 77.32C57.7989 77.1181 57.1574 77.1275 56.4386 77.3485C55.8396 77.5327 55.3688 77.7814 55.0265 78.0947C54.6813 78.4133 54.4772 78.7202 54.4142 79.0154C54.3561 78.8704 54.2802 78.7265 54.1865 78.5835C54.0928 78.4405 54.0065 78.329 53.9277 78.2492L52.1119 78.8074L52.1424 78.9066C52.2771 79.0505 52.4082 79.2341 52.5355 79.4573C52.6587 79.6816 52.761 79.926 52.8422 80.1904L53.7776 83.2332C54.01 83.9892 54.4478 84.4719 55.0909 84.6812C55.734 84.8905 56.5287 84.8498 57.4747 84.5589C58.425 84.2668 59.1328 83.848 59.5981 83.3025C60.0594 82.7584 60.1935 82.1722 60.0004 81.5442L59.9757 81.4637L58.1537 82.0237L58.1785 82.1043C58.2496 82.3356 58.2082 82.5541 58.0544 82.7597C57.8964 82.9664 57.5985 83.1372 57.1605 83.2718C56.7184 83.4077 56.3764 83.4202 56.1342 83.3091C55.8879 83.1995 55.7172 82.9897 55.622 82.6798L55.4982 82.277L56.9793 81.8217C57.9543 81.522 58.6766 81.0988 59.1461 80.552ZM57.2013 78.7487C57.4463 78.8543 57.6157 79.06 57.7098 79.3657C57.8037 79.6715 57.7418 79.9482 57.5241 80.196C57.3022 80.4451 56.9248 80.6515 56.3918 80.8153L55.1586 81.1945L54.9605 80.5499C54.855 80.207 54.9206 79.8613 55.1571 79.5128C55.3908 79.1696 55.7328 78.9289 56.1832 78.7904C56.617 78.6571 56.9563 78.6432 57.2013 78.7487Z" fill="white"/>
<path d="M50.7628 84.7325L50.8683 86.181L44.3245 86.6577L44.2191 85.2093L46.521 85.0416L46.1267 79.6294L48.0601 79.4885L48.4544 84.9007L50.7628 84.7325Z" fill="white"/>
<path fill-rule="evenodd" clip-rule="evenodd" d="M39.4733 84.2506L39.1589 86.4259L41.0775 86.7031L42.0613 79.895L38.3589 79.3601C37.4777 79.2326 36.7774 79.3345 36.2578 79.6656C35.7383 79.9967 35.4251 80.5323 35.3182 81.2724C35.2112 82.0125 35.3594 82.619 35.7627 83.0922C36.1659 83.5653 36.8082 83.8656 37.6894 83.9929L39.4733 84.2506ZM39.6643 82.9288L38.2205 82.7202C37.8184 82.6621 37.5445 82.533 37.3987 82.3329C37.2524 82.137 37.2014 81.8851 37.2458 81.5771C37.2935 81.2477 37.4174 81.0101 37.6175 80.8643C37.8133 80.718 38.1101 80.6736 38.508 80.7311L39.9517 80.9397L39.6643 82.9288Z" fill="white"/>
<path fill-rule="evenodd" clip-rule="evenodd" d="M30.2866 77.4906L27.1861 83.6311L23.7773 81.9099C22.9826 81.5085 22.4652 81.0803 22.2254 80.6252C21.9836 80.1738 21.9913 79.6934 22.2485 79.1842C22.4413 78.8022 22.7003 78.548 23.0256 78.4218C23.347 78.2935 23.7153 78.2785 24.1305 78.3768L24.1392 78.3594C23.7441 78.0679 23.4844 77.7383 23.3603 77.3706C23.2341 77.0066 23.2733 76.6221 23.4779 76.217C23.7506 75.6769 24.1568 75.3518 24.6966 75.2418C25.2325 75.1299 25.8824 75.2667 26.6463 75.6525L30.2866 77.4906ZM26.7383 80.2891L25.3203 79.5731C25.0155 79.4193 24.7645 79.3699 24.567 79.4252C24.3677 79.4843 24.2096 79.6297 24.0927 79.8612C23.9856 80.0734 23.9713 80.2696 24.0498 80.4496C24.1284 80.6297 24.3191 80.7986 24.6219 80.9564L26.0399 81.6723L26.7383 80.2891ZM28.0299 77.731L26.4384 76.9275C26.1181 76.7658 25.8525 76.7165 25.6415 76.7794C25.4307 76.8423 25.2657 76.9915 25.1468 77.2268C25.0319 77.4544 25.0128 77.6699 25.0892 77.8732C25.16 78.0784 25.3574 78.2628 25.6815 78.4264L27.2731 79.23L28.0299 77.731Z" fill="white"/>
<path d="M16.8962 77.6895L18.3756 78.9421L22.8207 73.6923L21.3412 72.4397L19.5397 74.5673L17.4269 72.7784L19.2283 70.6508L17.7489 69.3982L13.3039 74.6479L14.7834 75.9005L16.4927 73.8818L18.6054 75.6707L16.8962 77.6895Z" fill="white"/>
<path d="M15.7834 67.6247L10.1858 71.623L9.06276 70.0507L11.9539 67.9857C12.0629 67.9078 12.1938 67.8196 12.3466 67.7211C12.4968 67.6192 12.6267 67.5371 12.7362 67.4747L12.7076 67.4234C12.5764 67.4481 12.4368 67.4681 12.2886 67.4837C12.1368 67.5018 11.97 67.5174 11.7881 67.5305L7.37833 67.6925L6.25164 66.1151L11.8492 62.1168L12.9722 63.6891L10.0599 65.7691C9.95442 65.8445 9.82828 65.9319 9.68159 66.0314C9.53484 66.1309 9.40628 66.2148 9.29568 66.2831L9.32956 66.3306C9.45478 66.305 9.59141 66.2844 9.73959 66.2688C9.88181 66.2522 10.0456 66.2362 10.231 66.2206L14.6566 66.0473L15.7834 67.6247Z" fill="white"/>
<path d="M9.93967 59.8597C10.1471 59.1707 10.0242 58.2627 9.57102 57.1359C9.18232 56.1695 8.7031 55.47 8.1332 55.0378C7.5617 54.6014 6.95922 54.5106 6.32562 54.7654C5.91654 54.9299 5.64257 55.1984 5.50366 55.5712C5.35905 55.9414 5.35105 56.3966 5.47971 56.9365L5.46168 56.9437C5.17039 56.5438 4.85479 56.2747 4.51506 56.1365C4.17365 55.9942 3.81658 55.9981 3.44355 56.1481C2.89021 56.3707 2.54789 56.7878 2.41654 57.3996C2.28124 58.0132 2.40874 58.8051 2.79902 59.7755C3.21514 60.8101 3.73619 61.5207 4.36209 61.9072C4.98808 62.2937 5.64593 62.3482 6.33563 62.0709L6.36576 62.0587L5.66175 60.3083L5.63169 60.3204C5.3309 60.4414 5.04482 60.4307 4.77325 60.2884C4.49604 60.1436 4.26392 59.8387 4.07684 59.3735C3.92204 58.9885 3.87209 58.6731 3.92706 58.4274C3.98189 58.1817 4.13169 58.0096 4.37633 57.9113C4.61295 57.8162 4.82515 57.8169 5.01317 57.9137C5.19557 58.0081 5.35531 58.2257 5.49239 58.5666L5.92781 59.6493L7.10681 59.1751L6.60362 57.924C6.46654 57.5831 6.43266 57.3079 6.50212 57.0983C6.56755 56.8903 6.71858 56.7388 6.9552 56.6436C7.2198 56.5371 7.47433 56.5676 7.71864 56.7349C7.95731 56.8997 8.1694 57.2128 8.35483 57.6739C8.5726 58.2153 8.62471 58.6345 8.51136 58.9317C8.39622 59.2249 8.20642 59.4247 7.94174 59.5311L7.91167 59.5432L8.61562 61.2937L8.64569 61.2816C9.29535 61.0202 9.72664 60.5463 9.93967 59.8597Z" fill="white"/>
<path fill-rule="evenodd" clip-rule="evenodd" d="M75.992 43.8088C75.992 61.4085 61.7247 75.6758 44.1251 75.6758C26.5254 75.6758 12.2581 61.4085 12.2581 43.8088C12.2581 26.2092 26.5254 11.9419 44.1251 11.9419C61.7247 11.9419 75.992 26.2092 75.992 43.8088ZM75.3254 43.8088C75.3254 61.0403 61.3565 75.0091 44.1251 75.0091C26.8936 75.0091 12.9248 61.0403 12.9248 43.8088C12.9248 26.5774 26.8936 12.6085 44.1251 12.6085C61.3565 12.6085 75.3254 26.5774 75.3254 43.8088Z" fill="white"/>
</svg>
