<svg width="150" height="150" viewBox="0 0 150 150" fill="none" xmlns="http://www.w3.org/2000/svg">
<path d="M74.8242 122.502C101.126 122.502 122.447 101.18 122.447 74.8789C122.447 48.5774 101.126 27.2559 74.8242 27.2559C48.5227 27.2559 27.2012 48.5774 27.2012 74.8789C27.2012 101.18 48.5227 122.502 74.8242 122.502Z" stroke="white"/>
<path d="M69.5181 137.821L70.0869 134.398C70.3796 132.619 70.7978 131.381 71.3418 130.683C71.885 129.993 72.756 129.719 73.9549 129.862C74.2077 129.894 74.4423 129.937 74.6587 129.996C74.8751 130.055 75.0508 130.125 75.1855 130.208L74.91 132.501C74.8053 132.443 74.699 132.398 74.5912 132.364C74.4769 132.331 74.3516 132.306 74.2155 132.291C73.7425 132.234 73.4037 132.399 73.1991 132.79C72.9873 133.184 72.7925 133.93 72.6148 135.026L71.755 140.297L62.9961 139.246L64.2348 128.933L67.1416 129.282L66.1643 137.418L69.5181 137.821Z" fill="white"/>
<path d="M60.6872 128.364L56.9634 138.062L54.2393 137.017L56.1626 132.007C56.2351 131.82 56.3267 131.598 56.4371 131.347C56.5414 131.095 56.6368 130.883 56.7228 130.713L56.6442 130.672C56.4993 130.812 56.3401 130.953 56.1664 131.096C55.9901 131.247 55.793 131.404 55.5746 131.573L50.1532 135.448L47.4199 134.4L51.1437 124.703L53.8678 125.748L51.9304 130.794C51.8603 130.976 51.7741 131.191 51.6722 131.439C51.57 131.686 51.4779 131.899 51.3954 132.077L51.4777 132.108C51.6141 131.973 51.7692 131.833 51.9429 131.689C52.1083 131.55 52.3012 131.394 52.522 131.219L57.9539 127.315L60.6872 128.364Z" fill="white"/>
<path d="M45.707 127.779L45.5291 128.036C44.603 129.379 43.4458 130.157 42.0572 130.364C40.6633 130.57 39.2621 130.187 37.8536 129.217C36.5151 128.295 35.7139 127.285 35.4501 126.184C35.1773 125.084 35.3102 124.098 35.8487 123.224L35.9271 123.077L38.3059 124.714L38.2392 124.811C37.9576 125.22 37.8731 125.653 37.9856 126.11C38.0981 126.569 38.4688 127.014 39.0977 127.447C39.8289 127.951 40.5282 128.104 41.196 127.906C41.8581 127.704 42.4523 127.221 42.9784 126.457L43.3285 125.951C43.8544 125.187 44.0965 124.462 44.0545 123.776C44.0072 123.086 43.6126 122.484 42.8707 121.973C42.2203 121.526 41.6626 121.34 41.1979 121.416C40.7332 121.492 40.3655 121.726 40.0951 122.119L40.0341 122.207L37.6633 120.574L37.73 120.478C38.3117 119.634 39.1811 119.142 40.3386 119.006C41.4961 118.867 42.7441 119.258 44.0827 120.18C45.4858 121.147 46.3397 122.317 46.6445 123.693C46.9456 125.074 46.6331 126.435 45.707 127.779Z" fill="white"/>
<path d="M32.626 122.367L31.025 123.867L24.25 116.636L25.851 115.138L28.2342 117.681L34.2165 112.08L36.2184 114.216L30.2361 119.817L32.626 122.367Z" fill="white"/>
<path d="M27.8299 109.762C26.842 110.336 25.8657 110.37 24.901 109.866C23.9361 109.362 23.0667 108.444 22.2928 107.112L21.117 105.089L20.5668 105.409C20.1433 105.655 19.893 105.977 19.8157 106.377C19.7351 106.771 19.8703 107.27 20.2212 107.874C20.5689 108.472 20.9218 108.852 21.2801 109.014C21.635 109.17 21.9706 109.156 22.2868 108.973L22.3967 108.909L23.843 111.398L23.7329 111.461C22.8749 111.96 21.9669 111.962 21.0086 111.469C20.047 110.971 19.1892 110.073 18.4349 108.775C17.6838 107.483 17.3525 106.328 17.4406 105.31C17.5289 104.293 18.0896 103.484 19.1226 102.885L23.2801 100.471C23.6413 100.261 23.966 100.027 24.254 99.7695C24.5388 99.5061 24.7641 99.2507 24.93 99.0035L25.0653 98.9248L26.5068 101.405C26.4163 101.548 26.2818 101.713 26.1035 101.9C25.925 102.086 25.7391 102.247 25.5457 102.382C26.0015 102.374 26.5228 102.569 27.1096 102.969C27.6872 103.365 28.2139 103.973 28.6894 104.791C29.2601 105.773 29.4932 106.713 29.3887 107.612C29.2753 108.508 28.7557 109.225 27.8299 109.762ZM26.1558 107.349C26.5736 107.106 26.8183 106.787 26.8899 106.391C26.9616 105.994 26.8252 105.5 26.4808 104.907C26.1233 104.292 25.6523 103.871 25.0677 103.645C24.4742 103.416 23.943 103.437 23.4745 103.709L22.5939 104.22L23.5729 105.905C23.9959 106.633 24.4286 107.118 24.8709 107.359C25.3097 107.595 25.7382 107.591 26.1558 107.349Z" fill="white"/>
<path d="M16.0768 99.2291L13.9806 99.8743L11.0635 90.4049L13.1596 89.7598L14.1858 93.0909L22.0182 90.6801L22.8801 93.478L15.0477 95.8887L16.0768 99.2291Z" fill="white"/>
<path d="M9.77539 82.9105L13.0836 82.6421L12.8633 79.9292C12.7544 78.589 12.9805 77.5426 13.5416 76.7897C14.1025 76.037 14.9457 75.6149 16.0713 75.5236C17.1968 75.4323 18.0907 75.7134 18.7527 76.3668C19.4148 77.0204 19.8003 78.0174 19.9092 79.3575L20.3665 84.9883L10.0124 85.8285L9.77539 82.9105ZM14.9157 80.2833L15.0939 82.4791L18.1192 82.2337L17.9409 80.0378C17.8917 79.4328 17.7264 79.0107 17.4451 78.7716C17.1632 78.526 16.7718 78.4236 16.2708 78.4642C15.8024 78.5022 15.4486 78.6618 15.2095 78.9431C14.9639 79.2251 14.8659 79.6718 14.9157 80.2833Z" fill="white"/>
<path d="M20.007 67.1741L9.9209 64.6871L11.3027 59.0883C11.6248 57.7828 12.0803 56.8766 12.6694 56.3697C13.252 55.8613 13.9617 55.7101 14.7981 55.9165C15.4256 56.0712 15.8871 56.3664 16.1829 56.8024C16.4804 57.2321 16.6269 57.7691 16.6225 58.4134L16.6509 58.4204C16.9466 57.7404 17.3441 57.2467 17.8434 56.9396C18.3363 56.631 18.9156 56.5586 19.5811 56.7227C20.4682 56.9414 21.0841 57.4294 21.4283 58.1866C21.7741 58.9373 21.7923 59.9401 21.4826 61.195L20.007 67.1741ZM14.6888 62.898L15.2635 60.569C15.3871 60.0684 15.3747 59.6822 15.2268 59.4105C15.0723 59.137 14.8051 58.9536 14.4247 58.8597C14.0763 58.7739 13.7827 58.8191 13.5442 58.9955C13.3057 59.1721 13.1215 59.5099 12.9915 60.0088L12.4167 62.3378L14.6888 62.898ZM18.8905 63.934L19.5357 61.3199C19.6655 60.794 19.6483 60.3863 19.4844 60.0973C19.3205 59.8081 19.0453 59.6157 18.6586 59.5205C18.2848 59.4283 17.9611 59.4729 17.6877 59.6542C17.4096 59.8276 17.205 60.1806 17.0735 60.7128L16.4284 63.3269L18.8905 63.934Z" fill="white"/>
<path d="M13.8418 50.4022L15.1894 47.8033L18.7363 49.6411L20.661 45.9298L17.1141 44.092L18.4617 41.4932L27.6855 46.2721L26.3377 48.8709L22.5997 46.9342L20.675 50.6455L24.4131 52.5824L23.0654 55.1812L13.8418 50.4022Z" fill="white"/>
<path d="M29.4183 43.295L21.6318 36.4186L23.564 34.2324L27.5857 37.784C27.7375 37.918 27.9116 38.0805 28.1085 38.2718C28.3097 38.4582 28.4747 38.6213 28.6037 38.7614L28.6694 38.7018C28.5885 38.5173 28.5115 38.3186 28.4383 38.1058C28.3601 37.8886 28.2804 37.6486 28.1995 37.3855L26.4625 30.9533L28.4013 28.7598L36.1878 35.6361L34.2554 37.8222L30.2044 34.2447C30.0576 34.1151 29.8862 33.9593 29.6898 33.7772C29.4935 33.5952 29.3265 33.4344 29.1883 33.295L29.1299 33.3611C29.2101 33.5364 29.2869 33.7306 29.3601 33.9432C29.4329 34.1468 29.5122 34.3823 29.5982 34.6497L31.3572 41.1014L29.4183 43.295Z" fill="white"/>
<path d="M42.4719 30.9025C40.969 31.9537 39.6752 32.4446 38.5905 32.375C37.5075 32.2962 36.6627 31.8237 36.0563 30.9574L36.0282 30.9174L38.3628 29.2842L38.3909 29.3243C38.638 29.6772 38.9968 29.8882 39.4676 29.9572C39.9435 30.0226 40.5425 29.8026 41.2645 29.2976C41.8796 28.8673 42.2676 28.4485 42.4287 28.0411C42.5913 27.6247 42.549 27.24 42.3019 26.887C42.0812 26.5716 41.8065 26.4012 41.4781 26.3761C41.1459 26.3456 40.7526 26.4894 40.298 26.8073L38.6291 27.9746L37.5286 26.4026L38.9726 25.3924C39.4272 25.0744 39.6928 24.7652 39.7694 24.4647C39.8474 24.1552 39.776 23.8427 39.5552 23.5272C39.3268 23.2011 39.0226 23.0396 38.6422 23.0426C38.2619 23.0458 37.8151 23.227 37.3017 23.5861C36.6812 24.0202 36.312 24.4657 36.1936 24.9228C36.077 25.3708 36.1592 25.7953 36.4399 26.1964L36.4681 26.2364L34.1334 27.8696L34.1053 27.8295C33.4613 26.9099 33.3167 25.9236 33.6714 24.8711C34.026 23.8185 34.8933 22.8095 36.2732 21.8442C37.5675 20.9387 38.6891 20.4808 39.6379 20.4702C40.583 20.4543 41.3139 20.8154 41.8305 21.5532C42.1786 22.0505 42.3064 22.5745 42.2139 23.1252C42.1267 23.672 41.8386 24.228 41.3498 24.793L41.3667 24.8171C42.1169 24.4435 42.7893 24.2999 43.3835 24.386C43.9794 24.463 44.4681 24.7743 44.85 25.3197C45.4416 26.1645 45.5139 27.0818 45.0673 28.0713C44.626 29.057 43.7608 30.0008 42.4719 30.9025Z" fill="white"/>
<path d="M54.668 15.1434L55.475 18.5176C55.8974 20.2707 55.9937 21.5741 55.7636 22.428C55.5319 23.2755 54.8357 23.8659 53.675 24.1993C53.4303 24.2695 53.1969 24.3196 52.9746 24.3495C52.7522 24.3795 52.563 24.3829 52.4071 24.3598L51.7687 22.139C51.8879 22.1524 52.0036 22.1531 52.1156 22.1412C52.234 22.1277 52.359 22.1018 52.4907 22.0641C52.9488 21.9325 53.1962 21.6475 53.2332 21.2091C53.2747 20.7625 53.164 19.9997 52.9014 18.9207L51.6436 13.7302L60.1225 11.2949L62.9923 21.2788L60.1787 22.087L57.9146 14.211L54.668 15.1434Z" fill="white"/>
<path d="M66.4215 20.4398L66.0605 10.0579L68.9764 9.95668L69.1629 15.3188C69.17 15.5211 69.1716 15.7594 69.1682 16.0337C69.1712 16.308 69.1662 16.5401 69.1531 16.7299L69.2416 16.7366C69.3201 16.5511 69.4114 16.3584 69.5154 16.1589C69.6192 15.9528 69.7389 15.7299 69.8743 15.4901L73.3503 9.80464L76.2761 9.70312L76.6371 20.085L73.721 20.1863L73.5334 14.7849C73.5264 14.5892 73.5218 14.3575 73.5189 14.0898C73.5162 13.8221 73.5179 13.5902 73.5242 13.3941L73.4361 13.3971C73.3639 13.5761 73.2757 13.7653 73.1717 13.9648C73.0739 14.1576 72.9575 14.3772 72.8223 14.6235L69.3471 20.3381L66.4215 20.4398Z" fill="white"/>
<path d="M80.6654 15.1298L80.7289 14.8231C81.0593 13.225 81.8232 12.0598 83.0211 11.3274C84.2254 10.5964 85.6649 10.4037 87.3396 10.7496C88.9314 11.0784 90.0629 11.6987 90.7342 12.6104C91.4132 13.5172 91.6746 14.4776 91.5183 15.4917L91.5039 15.6588L88.6752 15.0745L88.699 14.9595C88.7995 14.4737 88.7088 14.0416 88.4269 13.6636C88.1453 13.2855 87.6303 13.0191 86.8825 12.8647C86.0131 12.6851 85.3094 12.8164 84.7715 13.2586C84.24 13.7019 83.8803 14.3775 83.6927 15.2852L83.5679 15.8892C83.3802 16.7969 83.4393 17.5589 83.7452 18.1754C84.0574 18.793 84.6546 19.1929 85.5366 19.3752C86.3102 19.5349 86.8961 19.4893 87.2947 19.2383C87.6931 18.9873 87.9406 18.6285 88.037 18.162L88.0588 18.0564L90.8778 18.6387L90.8541 18.7538C90.6467 19.7573 90.0367 20.5477 89.0241 21.1251C88.0117 21.7024 86.7095 21.8268 85.1178 21.498C83.4494 21.1535 82.2073 20.4071 81.3916 19.2589C80.5771 18.1042 80.3352 16.7279 80.6654 15.1298Z" fill="white"/>
<path d="M94.8511 15.0207L95.7509 13.0205L104.789 17.0822L103.889 19.0824L100.71 17.6535L97.3479 25.1272L94.6777 23.9273L98.0394 16.4536L94.8511 15.0207Z" fill="white"/>
<path d="M103.964 24.6738C104.653 23.7626 105.54 23.3527 106.624 23.4441C107.709 23.5354 108.866 24.0454 110.095 24.9739L111.962 26.3842L112.346 25.8767C112.642 25.4861 112.747 25.0916 112.664 24.6933C112.586 24.2988 112.268 23.8911 111.711 23.4701C111.159 23.0531 110.686 22.8393 110.293 22.8287C109.905 22.8221 109.601 22.9647 109.381 23.2563L109.304 23.3578L107.007 21.6228L107.084 21.5213C107.682 20.7298 108.519 20.3757 109.593 20.4592C110.672 20.5467 111.811 21.0429 113.009 21.9478C114.201 22.8486 114.955 23.7852 115.266 24.7575C115.579 25.7296 115.374 26.6921 114.654 27.6449L111.755 31.4797C111.504 31.8129 111.295 32.154 111.129 32.5032C110.968 32.8565 110.859 33.1791 110.802 33.4713L110.708 33.5962L108.419 31.8671C108.447 31.7001 108.507 31.4961 108.599 31.255C108.691 31.0138 108.801 30.7936 108.927 30.5943C108.509 30.7783 107.953 30.7998 107.258 30.6589C106.571 30.5167 105.851 30.1605 105.095 29.59C104.189 28.9055 103.61 28.1287 103.359 27.2599C103.117 26.3898 103.318 25.5278 103.964 24.6738ZM106.442 26.251C106.15 26.6363 106.048 27.0255 106.136 27.4186C106.223 27.8119 106.54 28.2149 107.087 28.628C107.655 29.0569 108.252 29.2627 108.879 29.2454C109.515 29.2267 109.996 29.0013 110.323 28.5692L110.937 27.757L109.382 26.5826C108.71 26.075 108.124 25.7956 107.623 25.7442C107.126 25.6966 106.733 25.8657 106.442 26.251Z" fill="white"/>
<path d="M118.91 29.8098L120.592 28.4004L126.962 35.9891L125.281 37.3986L123.04 34.729L116.761 39.9955L114.88 37.7534L121.159 32.4869L118.91 29.8098Z" fill="white"/>
<path d="M131.072 42.3029L128.13 43.8406L129.392 46.2522C130.016 47.4436 130.216 48.4953 129.994 49.4072C129.771 50.319 129.159 51.0367 128.159 51.5599C127.157 52.0831 126.225 52.1729 125.36 51.8295C124.496 51.4862 123.751 50.7189 123.129 49.5275L120.509 44.522L129.716 39.709L131.072 42.3029ZM127.365 46.727L126.344 44.7751L123.653 46.1814L124.675 48.1333C124.956 48.6711 125.273 48.9952 125.627 49.1056C125.981 49.2218 126.381 49.1635 126.827 48.9305C127.243 48.7127 127.506 48.4278 127.618 48.0754C127.733 47.7202 127.649 47.2707 127.365 46.727Z" fill="white"/>
<path d="M127.81 60.6714L138.068 59.0391L138.974 64.7341C139.186 66.0621 139.12 67.074 138.774 67.77C138.436 68.4651 137.84 68.8803 136.989 69.0157C136.352 69.1172 135.812 69.0247 135.37 68.7381C134.929 68.458 134.585 68.0204 134.338 67.4252L134.308 67.4297C134.3 68.1713 134.127 68.7805 133.786 69.2577C133.452 69.7338 132.947 70.0257 132.27 70.1334C131.368 70.277 130.611 70.067 129.999 69.5034C129.389 68.9464 128.981 68.0296 128.778 66.7532L127.81 60.6714ZM134.373 62.5418L134.75 64.9107C134.831 65.4199 134.992 65.7709 135.234 65.9637C135.484 66.1556 135.801 66.2206 136.188 66.1591C136.543 66.1027 136.795 65.9469 136.947 65.6915C137.098 65.4361 137.135 65.0532 137.061 64.543L136.684 62.1741L134.373 62.5418ZM130.098 63.2218L130.523 65.8808C130.608 66.4158 130.781 66.7847 131.046 66.9872C131.309 67.1898 131.637 67.2599 132.031 67.1973C132.411 67.1367 132.691 66.9698 132.873 66.6964C133.061 66.4285 133.112 66.0239 133.027 65.4823L132.604 62.8233L130.098 63.2218Z" fill="white"/>
<path d="M140.077 73.6694L139.851 76.5882L135.869 76.28L135.547 80.4483L139.53 80.7565L139.305 83.6754L128.948 82.8741L129.172 79.9552L133.371 80.2801L133.693 76.1117L129.496 75.7869L129.72 72.8682L140.077 73.6694Z" fill="white"/>
<path d="M128.543 86.5215L138.387 89.8385L137.455 92.6032L132.37 90.89C132.179 90.8255 131.955 90.7432 131.699 90.6432C131.442 90.5495 131.227 90.4632 131.054 90.3842L131.017 90.4645C131.163 90.6033 131.31 90.7566 131.46 90.9243C131.617 91.0939 131.784 91.2844 131.96 91.4954L136.056 96.7503L135.121 99.5242L125.276 96.2073L126.209 93.4427L131.331 95.1682C131.516 95.2308 131.736 95.3079 131.987 95.3995C132.238 95.4911 132.454 95.5744 132.636 95.6493L132.665 95.5658C132.522 95.4353 132.376 95.2863 132.226 95.1186C132.08 94.9592 131.916 94.7729 131.733 94.5598L127.607 89.2956L128.543 86.5215Z" fill="white"/>
<path d="M121.303 103.093C122.282 101.542 123.285 100.589 124.312 100.234C125.343 99.8874 126.304 99.9963 127.198 100.561L127.239 100.587L125.719 102.996L125.676 102.97C125.312 102.74 124.9 102.684 124.439 102.802C123.976 102.926 123.508 103.361 123.037 104.106C122.637 104.741 122.442 105.277 122.451 105.715C122.461 106.162 122.649 106.5 123.013 106.73C123.339 106.936 123.658 106.986 123.971 106.883C124.288 106.782 124.597 106.498 124.891 106.028L125.979 104.306L127.603 105.33L126.661 106.82C126.365 107.29 126.24 107.678 126.285 107.984C126.334 108.3 126.52 108.56 126.846 108.766C127.183 108.978 127.526 109.01 127.875 108.86C128.224 108.709 128.567 108.37 128.901 107.84C129.305 107.2 129.474 106.646 129.406 106.179C129.34 105.72 129.101 105.361 128.686 105.099L128.645 105.073L130.166 102.664L130.208 102.69C131.157 103.289 131.671 104.143 131.752 105.251C131.832 106.358 131.423 107.624 130.523 109.048C129.68 110.384 128.823 111.24 127.952 111.617C127.087 111.997 126.273 111.947 125.511 111.466C124.998 111.142 124.678 110.709 124.55 110.165C124.419 109.627 124.469 109.003 124.702 108.293L124.676 108.277C124.129 108.912 123.565 109.304 122.983 109.455C122.404 109.614 121.832 109.516 121.27 109.161C120.398 108.611 119.977 107.793 120.005 106.708C120.031 105.628 120.464 104.423 121.303 103.093Z" fill="white"/>
</svg>
