<svg width="105" height="105" viewBox="0 0 105 105" fill="none" xmlns="http://www.w3.org/2000/svg">
<path fill-rule="evenodd" clip-rule="evenodd" d="M46.9322 8.5L47.11 10.6907L48.9065 10.5448C49.794 10.4728 50.4869 10.6225 50.9854 10.994C51.4839 11.3655 51.7634 11.9239 51.8239 12.6692C51.8844 13.4145 51.6983 14.0063 51.2655 14.4448C50.8328 14.8832 50.1727 15.1384 49.2852 15.2105L45.5566 15.5131L45 8.65684L46.9322 8.5ZM48.6721 11.9038L47.2181 12.0218L47.3807 14.0251L48.8347 13.9071C49.2353 13.8745 49.5148 13.7651 49.6731 13.5788C49.8358 13.3922 49.9037 13.133 49.8767 12.8012C49.8515 12.4911 49.7458 12.2568 49.5595 12.0985C49.3728 11.9358 49.077 11.8709 48.6721 11.9038Z" fill="white"/>
<path d="M35.521 11.3331L35.9484 12.721L38.1605 12.0399L39.7575 17.2261L41.6101 16.6557L40.0131 11.4694L42.219 10.7902L41.7916 9.4022L35.521 11.3331Z" fill="white"/>
<path fill-rule="evenodd" clip-rule="evenodd" d="M28.7872 20.6019C28.4073 19.9478 28.3842 19.3014 28.718 18.6627C29.0518 18.0239 29.6597 17.4484 30.5417 16.9361L31.8816 16.1578L31.67 15.7934C31.5071 15.5131 31.2934 15.3473 31.0287 15.2961C30.7678 15.2427 30.4374 15.3322 30.0375 15.5645C29.6413 15.7946 29.3896 16.0283 29.2825 16.2654C29.1791 16.5005 29.1881 16.7226 29.3097 16.9319L29.352 17.0048L27.7038 17.9622L27.6615 17.8893C27.3315 17.3212 27.3297 16.7199 27.656 16.0855C27.986 15.449 28.5808 14.881 29.4404 14.3817C30.2963 13.8846 31.0612 13.6653 31.7349 13.7238C32.4087 13.7823 32.9443 14.1535 33.3415 14.8374L34.9404 17.5901C35.0794 17.8293 35.2342 18.0443 35.405 18.235C35.5795 18.4235 35.7486 18.5727 35.9124 18.6825L35.9645 18.7722L34.3218 19.7264C34.2271 19.6665 34.1179 19.5774 33.9942 19.4593C33.8706 19.3411 33.7642 19.2181 33.6748 19.09C33.6801 19.3918 33.5507 19.7369 33.2865 20.1253C33.0238 20.5078 32.6215 20.8565 32.0795 21.1713C31.4292 21.549 30.8065 21.7032 30.2115 21.634C29.618 21.5589 29.1433 21.2148 28.7872 20.6019ZM30.3853 19.4937C30.546 19.7702 30.7576 19.9323 31.0201 19.9797C31.2825 20.0272 31.61 19.9369 32.0025 19.709C32.4098 19.4724 32.6886 19.1605 32.8386 18.7735C32.9902 18.3805 32.976 18.0289 32.7958 17.7187L32.4571 17.1356L31.3415 17.7836C30.8593 18.0637 30.5383 18.3501 30.3785 18.6429C30.2224 18.9335 30.2247 19.2171 30.3853 19.4937Z" fill="white"/>
<path d="M19.306 22.8399L20.2988 23.8998L21.988 22.3176L25.6977 26.2781L27.1125 24.9529L23.4029 20.9924L25.0874 19.4146L24.0946 18.3546L19.306 22.8399Z" fill="white"/>
<path d="M16.5997 32.7178L16.4289 32.6001C15.5391 31.9871 15.0251 31.2209 14.8869 30.3016C14.7511 29.3788 15.0045 28.4511 15.647 27.5186C16.2576 26.6323 16.9275 26.1019 17.6568 25.9272C18.3849 25.7465 19.0381 25.8344 19.6165 26.191L19.7147 26.2428L18.6295 27.8178L18.5654 27.7736C18.2949 27.5873 18.0081 27.5313 17.7048 27.6058C17.4015 27.6803 17.1064 27.9258 16.8195 28.3422C16.486 28.8262 16.3848 29.2893 16.5159 29.7313C16.6495 30.1697 16.969 30.5631 17.4744 30.9113L17.8107 31.143C18.3161 31.4912 18.7962 31.6515 19.2511 31.6236C19.7083 31.5923 20.1062 31.331 20.4446 30.8398C20.7413 30.4092 20.8645 30.04 20.814 29.7323C20.7636 29.4246 20.6084 29.1812 20.3486 29.0022L20.2899 28.9618L21.3713 27.3922L21.4354 27.4363C21.9942 27.8213 22.3193 28.397 22.4107 29.1633C22.5021 29.9296 22.2424 30.7558 21.6318 31.6421C20.9918 32.571 20.2164 33.1365 19.3057 33.3383C18.3915 33.5377 17.4895 33.3309 16.5997 32.7178Z" fill="white"/>
<path d="M9.70587 40.367L16.1279 42.8318L16.8226 41.022L14.2375 37.4257C14.1223 37.2796 14.0186 37.1519 13.9263 37.0424C13.8316 36.9273 13.7391 36.8247 13.6487 36.7344L13.6696 36.68C13.7876 36.7345 13.9285 36.7955 14.0924 36.8631C14.2563 36.9306 14.3988 36.9876 14.5198 37.0341L17.861 38.3164L18.5533 36.5127L12.1312 34.0478L11.4366 35.8576L14.0034 39.447C14.1146 39.5915 14.2196 39.7221 14.3184 39.8387C14.4131 39.9538 14.5069 40.0592 14.5998 40.155L14.5728 40.2072C14.4604 40.1502 14.3203 40.0871 14.1523 40.018C13.986 39.9449 13.8402 39.8843 13.7151 39.8363L10.3982 38.5633L9.70587 40.367Z" fill="white"/>
<path d="M12.1003 49.2664L9.83387 48.8899L10.1005 46.6691L15.4884 47.3159L15.7194 45.3912L8.88961 44.5713L8.19336 50.3711L11.6838 50.9403C12.4098 51.058 12.9036 51.1869 13.1654 51.3272C13.4234 51.4626 13.5336 51.687 13.496 52.0002C13.4851 52.0904 13.4687 52.1733 13.4465 52.249C13.4249 52.3204 13.3947 52.3908 13.3559 52.4601L14.875 52.6425C14.9293 52.5532 14.9759 52.4369 15.0149 52.2936C15.0538 52.1502 15.0834 51.9949 15.1035 51.8275C15.1988 51.0336 15.0177 50.4568 14.5602 50.0972C14.0985 49.737 13.2785 49.4601 12.1003 49.2664Z" fill="white"/>
<path fill-rule="evenodd" clip-rule="evenodd" d="M59.2841 8.59306L57.6367 15.2717L61.596 16.2484C62.4269 16.4533 63.091 16.4413 63.5882 16.2123C64.0896 15.9843 64.4128 15.5765 64.5577 14.989C64.6664 14.5484 64.6185 14.1649 64.4142 13.8384C64.2108 13.5078 63.8839 13.2447 63.4336 13.049L63.4383 13.0301C63.8649 13.033 64.2205 12.9359 64.5051 12.739C64.7938 12.5431 64.9894 12.2374 65.0919 11.822C65.2285 11.2681 65.1285 10.7982 64.7918 10.4124C64.4562 10.0225 63.8562 9.72088 62.9917 9.50763L59.2841 8.59306ZM62.0108 12.1304L60.4686 11.75L60.8397 10.2456L62.3819 10.626C62.7124 10.712 62.9361 10.8339 63.0529 10.9918C63.1698 11.1498 63.1998 11.3441 63.1428 11.5749C63.0807 11.8267 62.9591 12.0037 62.7781 12.106C62.5981 12.204 62.3423 12.2122 62.0108 12.1304ZM61.5133 14.9592L59.7823 14.5322L60.1845 12.9019L61.9155 13.3289C62.268 13.4159 62.5017 13.5514 62.6165 13.7356C62.7366 13.9165 62.7661 14.1308 62.705 14.3784C62.6419 14.6344 62.5145 14.8167 62.323 14.9252C62.1315 15.0338 61.8616 15.0451 61.5133 14.9592Z" fill="white"/>
<path d="M68.9386 11.2412L70.6597 12.1333L69.4424 14.4817L71.9002 15.7558L73.1175 13.4073L74.8385 14.2994L71.6729 20.4065L69.9519 19.5144L71.2348 17.0393L68.777 15.7653L67.494 18.2404L65.773 17.3483L68.9386 11.2412Z" fill="white"/>
<path d="M78.3877 16.5005L73.8332 21.6556L75.2859 22.9391L79.5591 21.7745C79.7362 21.7176 79.8922 21.6651 80.027 21.6169C80.1679 21.5684 80.2964 21.5176 80.4126 21.4645L80.4563 21.5031C80.364 21.5945 80.2575 21.7052 80.137 21.8352C80.0164 21.9651 79.9132 22.0787 79.8273 22.1759L77.4578 24.8579L78.9057 26.1371L83.4602 20.982L82.0074 19.6985L77.7472 20.8485C77.5729 20.9021 77.4139 20.9549 77.2701 21.0066C77.1292 21.0551 76.9976 21.1062 76.8754 21.1596L76.8359 21.1162C76.9286 21.0308 77.0367 20.9215 77.1601 20.7884C77.2868 20.658 77.3945 20.5427 77.4832 20.4423L79.8356 17.7797L78.3877 16.5005Z" fill="white"/>
<path d="M82.1985 30.4424C81.5021 29.4473 81.1769 28.5907 81.2231 27.8727C81.2752 27.1556 81.5881 26.5964 82.1618 26.1949L82.1883 26.1763L83.2701 27.722L83.2435 27.7406C83.0098 27.9042 82.8701 28.1418 82.8244 28.4534C82.7811 28.7685 82.9268 29.1651 83.2614 29.6431C83.5464 30.0504 83.8238 30.3073 84.0936 30.4139C84.3694 30.5216 84.6242 30.4936 84.8579 30.3301C85.0668 30.1839 85.1796 30.002 85.1963 29.7846C85.2165 29.5648 85.1213 29.3043 84.9106 29.0033L84.1374 27.8985L85.1785 27.1698L85.8476 28.126C86.0583 28.427 86.2631 28.6028 86.4621 28.6535C86.6671 28.7052 86.8741 28.6579 87.083 28.5117C87.299 28.3605 87.406 28.1591 87.4039 27.9073C87.4018 27.6555 87.2818 27.3597 87.0439 27.0197C86.7564 26.609 86.4613 26.3644 86.1586 26.2861C85.8618 26.2089 85.5807 26.2632 85.3151 26.4491L85.2885 26.4677L84.2068 24.922L84.2333 24.9034C84.8424 24.4771 85.4956 24.3814 86.1927 24.6163C86.8899 24.8511 87.5582 25.4253 88.1976 26.3389C88.7973 27.1959 89.1007 27.9385 89.1077 28.5666C89.1183 29.1923 88.8792 29.6761 88.3905 30.0182C88.0612 30.2486 87.7142 30.3332 87.3495 30.2719C86.9872 30.2142 86.619 30.0234 86.2448 29.6998L86.2288 29.7109C86.4763 30.2077 86.5715 30.6528 86.5144 31.0462C86.4634 31.4407 86.2573 31.7643 85.8961 32.0171C85.3366 32.4086 84.7291 32.4566 84.0737 32.1608C83.4208 31.8686 82.7957 31.2958 82.1985 30.4424Z" fill="white"/>
<path d="M90.5475 39.2929L92.782 38.7587L93.3997 40.9085L88.1842 42.4071L88.7195 44.2703L95.3308 42.3706L93.7177 36.7563L90.2805 37.5887C89.5659 37.7626 89.0608 37.8358 88.7651 37.8083C88.4747 37.7838 88.2859 37.6199 88.1988 37.3167C88.1737 37.2294 88.1567 37.1466 88.1477 37.0683C88.1399 36.9941 88.1403 36.9175 88.1491 36.8385L86.6786 37.2611C86.6633 37.3644 86.6655 37.4897 86.6853 37.6369C86.7052 37.7841 86.7383 37.9387 86.7849 38.1007C87.0057 38.8692 87.3968 39.3302 87.9581 39.4838C88.5235 39.6361 89.3866 39.5725 90.5475 39.2929Z" fill="white"/>
<path d="M89.3294 46.748L96.2041 46.5091L96.2712 48.44L92.7205 48.5634C92.5866 48.568 92.4288 48.5692 92.247 48.5668C92.0655 48.5688 91.9118 48.5655 91.7861 48.5569L91.7816 48.6154C91.9045 48.6674 92.0321 48.7278 92.1642 48.7968C92.3007 48.8656 92.4483 48.9448 92.6071 49.0344L96.3719 51.3363L96.4392 53.2736L89.5645 53.5125L89.4974 51.5817L93.0741 51.4574C93.2037 51.4529 93.3571 51.4497 93.5343 51.4479C93.7116 51.446 93.8652 51.4472 93.995 51.4513L93.993 51.393C93.8746 51.3452 93.7493 51.2869 93.6172 51.2179C93.4895 51.1532 93.3441 51.076 93.181 50.9866L89.3968 48.6853L89.3294 46.748Z" fill="white"/>
<path d="M93.049 56.4355L92.8458 56.3935C91.7876 56.1748 90.8762 56.3352 90.1116 56.8745C89.3512 57.4147 88.8568 58.2372 88.6286 59.342C88.4108 60.396 88.493 61.2582 88.8753 61.9286C89.2576 62.599 89.781 63.0028 90.4456 63.1401L90.5218 63.1559L90.9074 61.2892L90.8376 61.2748C90.5286 61.2109 90.291 61.0471 90.1249 60.7832C89.9587 60.5194 89.9285 60.1314 90.0344 59.6192C90.1551 59.0351 90.4199 58.6397 90.829 58.4329C91.2371 58.2303 91.7418 58.1912 92.3428 58.3153L92.7428 58.398C93.3439 58.5222 93.7912 58.7603 94.0848 59.1122C94.3775 59.4684 94.4644 59.9343 94.3455 60.51C94.2432 61.0052 94.0668 61.3462 93.8164 61.5327C93.566 61.7193 93.2799 61.7794 92.9583 61.7129L92.8821 61.6972L92.4951 63.5702L92.6056 63.5798C93.2772 63.6833 93.9132 63.5101 94.5136 63.0605C95.1175 62.6159 95.5283 61.8666 95.746 60.8126C95.9752 59.7036 95.8477 58.7504 95.3637 57.9531C94.8788 57.16 94.1072 56.6541 93.049 56.4355Z" fill="white"/>
<path d="M92.8725 65.9766L94.1971 66.5721L91.5066 72.5563L90.1821 71.9608L91.1285 69.8557L86.1792 67.6304L86.9741 65.8624L91.9234 68.0876L92.8725 65.9766Z" fill="white"/>
<path fill-rule="evenodd" clip-rule="evenodd" d="M87.2152 73.9365C87.2757 73.2184 87.0043 72.6313 86.4008 72.1752C85.8353 71.7479 85.2644 71.6144 84.6881 71.7748C84.1126 71.9413 83.5981 72.3245 83.1447 72.9245C82.7669 73.4245 82.5308 73.9017 82.4367 74.3561C82.3434 74.8165 82.3576 75.1848 82.4794 75.461C82.3474 75.3775 82.2016 75.3053 82.0419 75.2442C81.8822 75.1831 81.747 75.1432 81.6364 75.1247L80.4911 76.6402L80.5739 76.7028C80.7674 76.7406 80.9811 76.8127 81.215 76.9191C81.4462 77.0288 81.6722 77.1671 81.8929 77.3339L84.4326 79.2531C85.0636 79.73 85.7011 79.865 86.345 79.6582C86.9889 79.4513 87.6093 78.9531 88.206 78.1634C88.8054 77.3703 89.134 76.6164 89.1919 75.9017C89.2473 75.1905 89.0129 74.6368 88.4887 74.2407L88.4215 74.1899L87.2723 75.7106L87.3395 75.7614C87.5326 75.9073 87.627 76.1087 87.6226 76.3654C87.6156 76.6255 87.474 76.9384 87.1977 77.3039C86.9189 77.6729 86.6489 77.8833 86.3876 77.935C86.1237 77.9903 85.8625 77.9202 85.6039 77.7247L85.2677 77.4706L86.2019 76.2344C86.8169 75.4206 87.1547 74.6546 87.2152 73.9365ZM84.5828 73.6131C84.8432 73.5553 85.101 73.6228 85.3562 73.8156C85.6114 74.0085 85.7232 74.2691 85.6918 74.5975C85.6577 74.9293 85.4726 75.3176 85.1364 75.7624L84.3586 76.7918L83.8206 76.3852C83.5344 76.169 83.3852 75.8503 83.3729 75.4293C83.3614 75.0143 83.4977 74.6189 83.7818 74.243C84.0554 73.8809 84.3224 73.671 84.5828 73.6131Z" fill="white"/>
<path d="M82.8662 82.2336L83.7997 83.3461L78.7737 87.5636L77.8402 86.4511L79.6082 84.9675L76.12 80.8106L77.605 79.5645L81.0932 83.7214L82.8662 82.2336Z" fill="white"/>
<path fill-rule="evenodd" clip-rule="evenodd" d="M73.4317 88.452L74.4504 90.3996L76.1681 89.5011L72.9799 83.4057L69.6651 85.1396C68.8761 85.5522 68.368 86.0448 68.1406 86.6174C67.9133 87.1899 67.9729 87.8075 68.3195 88.4701C68.6661 89.1327 69.1413 89.5377 69.7453 89.6852C70.3492 89.8327 71.0457 89.7001 71.8346 89.2874L73.4317 88.452ZM72.8127 87.2686L71.5201 87.9447C71.1601 88.133 70.8624 88.1887 70.6271 88.1118C70.3938 88.0387 70.205 87.8643 70.0607 87.5886C69.9065 87.2937 69.8678 87.0285 69.9447 86.7932C70.0178 86.5599 70.2324 86.3501 70.5886 86.1638L71.8812 85.4877L72.8127 87.2686Z" fill="white"/>
<path fill-rule="evenodd" clip-rule="evenodd" d="M62.0262 88.35L63.1075 95.1433L59.3363 95.7436C58.457 95.8835 57.7869 95.8392 57.326 95.6106C56.8657 95.3862 56.5907 94.9923 56.5011 94.4289C56.4338 94.0063 56.495 93.6486 56.6848 93.3558C56.8702 93.0637 57.16 92.8359 57.5542 92.6725L57.5511 92.6533C57.0601 92.6483 56.6566 92.5331 56.3407 92.3077C56.0253 92.0865 55.832 91.7518 55.7607 91.3036C55.6656 90.7061 55.8046 90.2047 56.1778 89.7995C56.5467 89.3951 57.1537 89.1255 57.9989 88.991L62.0262 88.35ZM60.7879 92.6961L59.2192 92.9458C58.882 92.9995 58.6496 93.1065 58.5219 93.2669C58.3949 93.4315 58.3518 93.6419 58.3926 93.898C58.43 94.1328 58.5332 94.3002 58.7023 94.4002C58.8714 94.5002 59.1249 94.5255 59.4628 94.4761L61.0315 94.2264L60.7879 92.6961ZM60.3374 89.8661L58.5767 90.1464C58.2224 90.2028 57.9782 90.3183 57.844 90.4928C57.7099 90.6673 57.6635 90.8848 57.7049 91.1452C57.745 91.397 57.8556 91.5829 58.0366 91.7029C58.2141 91.8279 58.4821 91.8618 58.8406 91.8047L60.6014 91.5244L60.3374 89.8661Z" fill="white"/>
<path d="M51.2873 96.3506L53.22 96.5L53.7502 89.6416L51.8174 89.4922L51.6025 92.2718L48.8424 92.0584L49.0572 89.2789L47.1245 89.1295L46.5943 95.9878L48.5271 96.1372L48.731 93.4999L51.4911 93.7133L51.2873 96.3506Z" fill="white"/>
<path d="M44.4924 88.8426L42.2951 95.3611L40.4642 94.7439L41.5991 91.3772C41.6419 91.2502 41.6964 91.1021 41.7626 90.9328C41.8247 90.7622 41.8819 90.6196 41.9342 90.5049L41.881 90.4801C41.7891 90.5769 41.6876 90.6749 41.5766 90.7743C41.4641 90.8778 41.338 90.9881 41.1982 91.1052L37.718 93.8182L35.8811 93.199L38.0784 86.6805L39.9092 87.2977L38.766 90.689C38.7246 90.8119 38.6735 90.9566 38.6128 91.1231C38.5521 91.2897 38.497 91.433 38.4473 91.5531L38.5026 91.5718C38.5891 91.4777 38.6878 91.381 38.7988 91.2816C38.9044 91.1849 39.0278 91.076 39.169 90.9548L42.6554 88.2234L44.4924 88.8426Z" fill="white"/>
<path d="M35.2093 85.9684C34.9741 85.2884 34.3429 84.6242 33.3158 83.976C32.4349 83.4201 31.6369 83.1336 30.9218 83.1168C30.203 83.0976 29.6614 83.3767 29.2969 83.9542C29.0616 84.3271 28.9967 84.7052 29.1023 85.0887C29.2018 85.4735 29.4618 85.8472 29.8822 86.2096L29.8718 86.226C29.4015 86.0723 28.9881 86.0389 28.6318 86.1258C28.2717 86.2103 27.9845 86.4225 27.7699 86.7625C27.4516 87.2669 27.4183 87.8055 27.67 88.3784C27.9195 88.955 28.4865 89.5224 29.371 90.0806C30.3141 90.6758 31.1525 90.9468 31.8862 90.8937C32.62 90.8406 33.1852 90.4996 33.582 89.871L33.5993 89.8435L32.0038 88.8366L31.9865 88.864C31.8135 89.1382 31.5753 89.297 31.2718 89.3406C30.9623 89.3855 30.5956 89.2742 30.1716 89.0066C29.8207 88.7851 29.5956 88.5587 29.4963 88.3273C29.3969 88.096 29.4176 87.8688 29.5584 87.6459C29.6945 87.4302 29.867 87.3066 30.0761 87.275C30.2792 87.2447 30.5361 87.3276 30.8468 87.5237L31.8337 88.1466L32.5119 87.0719L31.3715 86.3522C31.0608 86.1561 30.8722 85.9528 30.8058 85.7422C30.7371 85.5353 30.7708 85.324 30.9069 85.1083C31.0591 84.8671 31.2833 84.7428 31.5793 84.7354C31.8693 84.7293 32.2245 84.8589 32.6448 85.1242C33.1383 85.4356 33.426 85.745 33.5081 86.0523C33.5864 86.3574 33.5495 86.6305 33.3972 86.8717L33.3799 86.8991L34.9754 87.9061L34.9927 87.8787C35.3664 87.2865 35.4386 86.6498 35.2093 85.9684Z" fill="white"/>
<path fill-rule="evenodd" clip-rule="evenodd" d="M84.1001 52.1742C84.1001 69.7739 69.8328 84.0412 52.2332 84.0412C34.6335 84.0412 20.3662 69.7739 20.3662 52.1742C20.3662 34.5746 34.6335 20.3073 52.2332 20.3073C69.8328 20.3073 84.1001 34.5746 84.1001 52.1742ZM83.4335 52.1742C83.4335 69.4057 69.4646 83.3745 52.2332 83.3745C35.0017 83.3745 21.0329 69.4057 21.0329 52.1742C21.0329 34.9428 35.0017 20.9739 52.2332 20.9739C69.4646 20.9739 83.4335 34.9428 83.4335 52.1742Z" fill="white"/>
</svg>
