<svg width="88" height="76" viewBox="0 0 88 76" fill="none" xmlns="http://www.w3.org/2000/svg">
<path d="M16.7557 36.5723C16.3057 36.5723 15.9375 36.2042 15.9375 35.7542V32.0398C15.9375 31.0539 15.1357 30.2481 14.1458 30.2481H3.42804C2.44217 30.2481 1.6363 31.0498 1.6363 32.0398V35.7542C1.6363 36.2042 1.26813 36.5723 0.818148 36.5723C0.368166 36.5723 0 36.2042 0 35.7542V32.0398C0 30.1499 1.53812 28.6118 3.42804 28.6118H14.1458C16.0357 28.6118 17.5738 30.1499 17.5738 32.0398V35.7542C17.5738 36.2042 17.2056 36.5723 16.7557 36.5723Z" fill="white"/>
<path d="M14.1458 47.376H3.42804C1.53812 47.376 0 45.8379 0 43.9479V40.2336C0 39.7836 0.368166 39.4154 0.818148 39.4154C1.26813 39.4154 1.6363 39.7836 1.6363 40.2336V43.9479C1.6363 44.9338 2.43808 45.7397 3.42804 45.7397H14.1458C15.1316 45.7397 15.9375 44.9379 15.9375 43.9479V40.2336C15.9375 39.7836 16.3057 39.4154 16.7557 39.4154C17.2056 39.4154 17.5738 39.7836 17.5738 40.2336V43.9479C17.5738 45.8379 16.0357 47.376 14.1458 47.376Z" fill="white"/>
<path d="M39.1729 47.3841H39.1647C38.7147 47.3841 38.3506 47.0119 38.3547 46.5578L38.4979 30.743L30.6273 38.5195C30.2387 38.9081 29.6005 38.9081 29.2078 38.5195L21.5295 30.743L21.3863 46.5742C21.3822 47.0242 21.0182 47.3841 20.5682 47.3841H20.56C20.11 47.3841 19.7459 47.0119 19.75 46.5578L19.9014 29.9085C19.9055 29.3849 20.2246 28.9186 20.7114 28.7181C21.1982 28.5218 21.7504 28.6363 22.1186 29.0086L29.9278 36.9159L37.9415 29.0004C38.3179 28.6322 38.8701 28.5258 39.3569 28.7304C39.8437 28.9349 40.1505 29.4094 40.1465 29.9331L39.9951 46.5742C39.991 47.0242 39.6269 47.3841 39.1769 47.3841H39.1729ZM29.4778 37.3537C29.4778 37.3537 29.4778 37.3537 29.4737 37.3577H29.4778V37.3537Z" fill="white"/>
<path d="M59.1032 47.3309C58.866 47.3309 58.6287 47.2328 58.4651 47.0487L52.7012 40.5198C52.4026 40.1803 52.4353 39.6649 52.7749 39.3663C53.1144 39.0676 53.6298 39.1004 53.9284 39.4399L58.3096 44.4101V29.5526C58.3096 29.1026 58.6778 28.7344 59.1278 28.7344C59.5777 28.7344 59.9459 29.1026 59.9459 29.5526V47.0568L59.3978 47.2859C59.2996 47.3227 59.1973 47.3391 59.0991 47.3391L59.1032 47.3309Z" fill="white"/>
<path d="M43.161 47.3841H43.1528C42.7028 47.3841 42.3387 47.0119 42.3428 46.5578L42.4983 29.8185C42.5023 29.3276 42.801 28.8899 43.255 28.7058C43.7091 28.5176 44.2245 28.624 44.5723 28.9717L44.605 29.0085L50.0334 35.1405C50.332 35.4801 50.3034 35.9955 49.9639 36.2941C49.6243 36.5928 49.1089 36.56 48.8103 36.2246L44.1264 30.9312L43.9832 46.5742C43.9791 47.0241 43.615 47.3841 43.165 47.3841H43.161Z" fill="white"/>
<path d="M63.1609 47.3842C62.7109 47.3842 62.3428 47.016 62.3428 46.566V29.434C62.3428 28.984 62.7109 28.6158 63.1609 28.6158C63.6109 28.6158 63.9791 28.984 63.9791 29.434V46.566C63.9791 47.016 63.6109 47.3842 63.1609 47.3842Z" fill="white"/>
<path d="M75.5027 47.3842C75.0527 47.3842 74.6846 47.016 74.6846 46.566V29.434C74.6846 28.984 75.0527 28.6158 75.5027 28.6158C75.9527 28.6158 76.3209 28.984 76.3209 29.434V46.566C76.3209 47.016 75.9527 47.3842 75.5027 47.3842Z" fill="white"/>
<path d="M83.6347 30.2521H67.3699C66.9199 30.2521 66.5518 29.884 66.5518 29.434C66.5518 28.984 66.9199 28.6158 67.3699 28.6158H83.6347C84.0847 28.6158 84.4528 28.984 84.4528 29.434C84.4528 29.884 84.0847 30.2521 83.6347 30.2521Z" fill="white"/>
<path d="M87.1814 47.3842C86.7314 47.3842 86.3633 47.016 86.3633 46.566V29.434C86.3633 28.984 86.7314 28.6158 87.1814 28.6158C87.6314 28.6158 87.9996 28.984 87.9996 29.434V46.566C87.9996 47.016 87.6314 47.3842 87.1814 47.3842Z" fill="white"/>
<path d="M11.2412 26.4968C15.9987 12.9933 28.8763 3.28599 43.9875 3.28599C59.0987 3.28599 71.9764 12.9933 76.7339 26.4968H79.3315C74.4758 11.6147 60.4691 0.831543 43.9875 0.831543C27.5059 0.831543 13.4993 11.6147 8.64355 26.4968H11.2412Z" fill="white"/>
<path d="M76.75 49.454C72.0047 62.9821 59.1148 72.714 43.9873 72.714C28.8597 72.714 15.9698 62.9821 11.2246 49.454H8.62695C13.4663 64.3607 27.4853 75.1684 43.9873 75.1684C60.4893 75.1684 74.5083 64.3607 79.3476 49.454H76.75Z" fill="white"/>
</svg>
