<svg width="4285" height="104" viewBox="0 0 4285 104" fill="none" xmlns="http://www.w3.org/2000/svg">
<path d="M0.253906 87.1658V1.85327H52.4609C61.4453 1.85327 68.2422 3.7478 72.8516 7.53687C77.5 11.3259 79.8242 16.6189 79.8242 23.4158C79.8242 28.2986 78.6523 32.3806 76.3086 35.6619C73.9648 38.9041 71.0156 41.0916 67.4609 42.2244V42.4587C72.4219 43.1619 76.4648 45.2126 79.5898 48.6111C82.7148 51.9705 84.2773 56.6775 84.2773 62.7322C84.2773 70.6619 81.3867 76.7166 75.6055 80.8962C69.8242 85.0759 62.5391 87.1658 53.75 87.1658H0.253906ZM22.7539 68.4744H48.0664C51.582 68.4744 54.5703 67.8103 57.0312 66.4822C59.5312 65.1541 60.7812 62.8494 60.7812 59.5681C60.7812 56.8337 59.5312 54.8611 57.0312 53.6501C54.5703 52.4001 51.582 51.7751 48.0664 51.7751H22.7539V68.4744ZM22.7539 36.1892H47.0117C50.3711 36.1892 53.0078 35.5447 54.9219 34.2556C56.875 32.9666 57.8516 31.0916 57.8516 28.6306C57.8516 26.2087 56.875 24.3728 54.9219 23.1228C53.0078 21.8728 50.3711 21.2478 47.0117 21.2478H22.7539V36.1892ZM90.4297 44.3337V43.572C90.4297 29.3923 95.8594 18.6111 106.719 11.2283C117.617 3.8064 131.055 0.095459 147.031 0.095459C163.008 0.095459 176.484 3.8064 187.461 11.2283C198.438 18.6111 203.926 29.3923 203.926 43.572V44.3337C203.926 59.0603 198.438 70.1736 187.461 77.6736C176.484 85.1736 163.008 88.9236 147.031 88.9236C131.055 88.9236 117.617 85.1736 106.719 77.6736C95.8594 70.1736 90.4297 59.0603 90.4297 44.3337ZM114.57 44.6853C114.57 52.6931 117.598 58.7283 123.652 62.7908C129.707 66.8533 137.539 68.9236 147.148 69.0017C156.719 69.1189 164.551 67.1072 170.645 62.9666C176.777 58.7869 179.844 52.7322 179.844 44.8025V43.572C179.844 35.9939 176.797 30.2908 170.703 26.4626C164.609 22.6345 156.758 20.6619 147.148 20.5447C137.461 20.4275 129.609 22.3416 123.594 26.2869C117.578 30.2322 114.57 35.9744 114.57 43.5134V44.6853ZM257.012 68.5916C264.668 68.6306 270.215 68.1423 273.652 67.1267C277.129 66.072 278.867 63.8845 278.867 60.5642C278.867 58.2205 277.344 56.5798 274.297 55.6423C271.289 54.6658 266.699 54.1775 260.527 54.1775H243.008V34.4314H260.762C265.801 34.4314 269.648 33.8845 272.305 32.7908C274.961 31.697 276.309 29.8416 276.348 27.2244C276.348 25.3494 274.844 23.7478 271.836 22.4197C268.828 21.0916 263.867 20.4275 256.953 20.4275C248.398 20.4275 242.07 21.5408 237.969 23.7673C233.867 25.9939 231.641 28.8064 231.289 32.2048L231.055 34.4314H208.789L209.023 31.7361C209.727 21.5798 214.16 13.8259 222.324 8.47437C230.527 3.1228 242.109 0.447021 257.07 0.447021C271.758 0.447021 282.617 2.59546 289.648 6.89233C296.68 11.1892 300.176 16.9314 300.137 24.1189C300.137 28.4939 298.633 32.322 295.625 35.6033C292.617 38.8455 288.613 41.072 283.613 42.283V42.5173C289.355 43.2986 294.023 45.3103 297.617 48.5525C301.211 51.7947 303.008 56.3064 303.008 62.0876C303.008 69.9392 298.965 76.3259 290.879 81.2478C282.832 86.1306 271.543 88.572 257.012 88.572C241.621 88.572 229.785 86.1111 221.504 81.1892C213.262 76.2283 208.867 68.3572 208.32 57.5759L208.203 55.3494H230.469L230.645 57.2244C230.957 61.4431 233.262 64.3923 237.559 66.072C241.855 67.7517 248.34 68.5916 257.012 68.5916ZM314.023 87.1658V1.85327H342.734L374.199 53.24C374.707 54.1384 375.059 54.7634 375.254 55.115C375.488 55.4666 375.684 55.8572 375.84 56.2869H375.957C376.152 55.8572 376.328 55.4861 376.484 55.1736C376.68 54.8611 377.051 54.2166 377.598 53.24L409.238 1.85327H438.652V87.1658H415.977L416.094 40.5837C416.094 39.8416 416.133 39.2556 416.211 38.8259C416.289 38.3962 416.328 37.8298 416.328 37.1267H415.918C415.566 37.8298 415.273 38.3962 415.039 38.8259C414.805 39.2556 414.512 39.8025 414.16 40.4666L385.801 87.1658H369.512L340.156 39.822C339.688 39.0408 339.355 38.4939 339.16 38.1814C339.004 37.8298 338.711 37.2048 338.281 36.3064H337.871C337.91 37.283 337.949 37.947 337.988 38.2986C338.066 38.6501 338.105 39.197 338.105 39.9392L338.223 87.1658H314.023ZM451.602 44.3337V43.572C451.602 29.3923 457.031 18.6111 467.891 11.2283C478.789 3.8064 492.227 0.095459 508.203 0.095459C524.18 0.095459 537.656 3.8064 548.633 11.2283C559.609 18.6111 565.098 29.3923 565.098 43.572V44.3337C565.098 59.0603 559.609 70.1736 548.633 77.6736C537.656 85.1736 524.18 88.9236 508.203 88.9236C492.227 88.9236 478.789 85.1736 467.891 77.6736C457.031 70.1736 451.602 59.0603 451.602 44.3337ZM475.742 44.6853C475.742 52.6931 478.77 58.7283 484.824 62.7908C490.879 66.8533 498.711 68.9236 508.32 69.0017C517.891 69.1189 525.723 67.1072 531.816 62.9666C537.949 58.7869 541.016 52.7322 541.016 44.8025V43.572C541.016 35.9939 537.969 30.2908 531.875 26.4626C525.781 22.6345 517.93 20.6619 508.32 20.5447C498.633 20.4275 490.781 22.3416 484.766 26.2869C478.75 30.2322 475.742 35.9744 475.742 43.5134V44.6853ZM630.137 87.1658V1.85327H653.457V87.1658H630.137ZM691.426 87.1658L653.105 47.322L672.148 35.3103L721.309 87.1658H691.426ZM641.797 32.322H658.438L687.969 1.85327H719.551L671.621 54.5291H641.797V32.322ZM562.52 87.1658L611.738 35.3689L630.488 47.322L592.109 87.1658H562.52ZM641.797 32.322V54.5291H611.68L563.75 1.85327H595.625L625.156 32.322H641.797ZM726.582 87.1658V1.85327H749.668V31.5603H793.203V1.85327H816.289V87.1658H793.203V54.7048H749.668V87.1658H726.582ZM829.297 44.3337V43.572C829.297 29.3923 834.727 18.6111 845.586 11.2283C856.484 3.8064 869.922 0.095459 885.898 0.095459C901.875 0.095459 915.352 3.8064 926.328 11.2283C937.305 18.6111 942.793 29.3923 942.793 43.572V44.3337C942.793 59.0603 937.305 70.1736 926.328 77.6736C915.352 85.1736 901.875 88.9236 885.898 88.9236C869.922 88.9236 856.484 85.1736 845.586 77.6736C834.727 70.1736 829.297 59.0603 829.297 44.3337ZM853.438 44.6853C853.438 52.6931 856.465 58.7283 862.52 62.7908C868.574 66.8533 876.406 68.9236 886.016 69.0017C895.586 69.1189 903.418 67.1072 909.512 62.9666C915.645 58.7869 918.711 52.7322 918.711 44.8025V43.572C918.711 35.9939 915.664 30.2908 909.57 26.4626C903.477 22.6345 895.625 20.6619 886.016 20.5447C876.328 20.4275 868.477 22.3416 862.461 26.2869C856.445 30.2322 853.438 35.9744 853.438 43.5134V44.6853ZM948.242 45.0955V43.865C948.242 29.3728 953.457 18.4548 963.887 11.1111C974.355 3.76733 987.891 0.095459 1004.49 0.095459C1020.98 0.095459 1033.26 2.90796 1041.35 8.53296C1049.47 14.158 1054.65 22.9861 1056.88 35.0173L1057.23 37.5369H1034.08L1033.73 35.4861C1032.21 30.7986 1029.3 27.1072 1025 24.4119C1020.7 21.6775 1014.08 20.3103 1005.14 20.3103C994.863 20.3103 986.914 22.3806 981.289 26.5212C975.703 30.6228 972.91 36.365 972.91 43.7478V45.0369C972.91 53.3962 975.781 59.49 981.523 63.3181C987.305 67.1072 995.176 69.0017 1005.14 69.0017C1014.55 69.0017 1021.46 67.6931 1025.88 65.0759C1030.33 62.4197 1033.01 58.7478 1033.91 54.0603L1034.2 51.7751H1057.23L1056.99 54.3533C1055.82 66.1111 1051.04 74.822 1042.64 80.4861C1034.28 86.1111 1021.64 88.9236 1004.73 88.9236C987.617 88.9236 973.926 85.1736 963.652 77.6736C953.379 70.1736 948.242 59.3142 948.242 45.0955ZM1059.75 23.9431V1.85327H1151.56V23.9431H1117.34V87.1658H1093.96V23.9431H1059.75ZM1253.87 87.1658H1230.78V40.9353C1230.78 39.7634 1230.8 38.865 1230.84 38.24C1230.88 37.615 1230.9 36.99 1230.9 36.365H1230.66C1230.39 36.9509 1230.02 37.5955 1229.55 38.2986C1229.12 39.0017 1228.38 39.8611 1227.32 40.8767L1189.71 87.1658H1162.99V1.85327H1186.07V46.9119C1186.07 47.8884 1186.07 48.6697 1186.07 49.2556C1186.07 49.8416 1186.07 50.6228 1186.07 51.5994H1186.31C1186.66 50.7791 1187.03 50.1736 1187.42 49.783C1187.81 49.3533 1188.52 48.5916 1189.53 47.4978L1227.15 1.85327H1253.87V87.1658ZM1313.93 87.1658V1.85327H1337.01V31.5603H1380.55V1.85327H1403.63V87.1658H1380.55V54.7048H1337.01V87.1658H1313.93ZM1424.2 87.1658V1.85327H1501.02V23.533H1446V34.3142H1495.86V53.7673H1446V66.1306H1501.89V87.1658H1424.2ZM1557.44 87.1658V1.85327H1646.27V87.1658H1623.18V23.7087H1580.53V87.1658H1557.44ZM1666.78 87.1658V1.85327H1723.09C1733.79 1.85327 1741.72 4.70483 1746.88 10.408C1752.07 16.1111 1754.67 24.2556 1754.67 34.8416C1754.67 44.8025 1752.11 52.7908 1746.99 58.8064C1741.91 64.783 1733.81 67.7712 1722.68 67.7712H1689.86V87.1658H1666.78ZM1689.86 48.2009H1717.17C1722.29 48.2009 1725.96 47.0876 1728.18 44.8611C1730.45 42.5955 1731.58 39.4119 1731.58 35.3103C1731.58 31.0134 1730.45 27.8298 1728.18 25.7595C1725.96 23.6501 1722.29 22.5955 1717.17 22.5955H1689.86V48.2009ZM1857.62 87.1658H1834.53V40.9353C1834.53 39.7634 1834.55 38.865 1834.59 38.24C1834.63 37.615 1834.65 36.99 1834.65 36.365H1834.41C1834.14 36.9509 1833.77 37.5955 1833.3 38.2986C1832.87 39.0017 1832.13 39.8611 1831.07 40.8767L1793.46 87.1658H1766.74V1.85327H1789.82V46.9119C1789.82 47.8884 1789.82 48.6697 1789.82 49.2556C1789.82 49.8416 1789.82 50.6228 1789.82 51.5994H1790.06C1790.41 50.7791 1790.78 50.1736 1791.17 49.783C1791.56 49.3533 1792.27 48.5916 1793.28 47.4978L1830.9 1.85327H1857.62V87.1658ZM1864.3 87.1658L1904.2 38.3572L1908.3 37.7126L1936.78 1.85327H1963.32L1924.59 49.6072L1920.55 50.3689L1891.48 87.1658H1864.3ZM1866.88 1.85327H1894.12L1921.84 36.658L1922.07 37.4197L1963.03 87.1658H1935.49L1905.72 50.4275L1905.55 49.6658L1866.88 1.85327ZM1963.44 44.3337V43.572C1963.44 29.3923 1968.87 18.6111 1979.73 11.2283C1990.62 3.8064 2004.06 0.095459 2020.04 0.095459C2036.02 0.095459 2049.49 3.8064 2060.47 11.2283C2071.45 18.6111 2076.93 29.3923 2076.93 43.572V44.3337C2076.93 59.0603 2071.45 70.1736 2060.47 77.6736C2049.49 85.1736 2036.02 88.9236 2020.04 88.9236C2004.06 88.9236 1990.62 85.1736 1979.73 77.6736C1968.87 70.1736 1963.44 59.0603 1963.44 44.3337ZM1987.58 44.6853C1987.58 52.6931 1990.61 58.7283 1996.66 62.7908C2002.71 66.8533 2010.55 68.9236 2020.16 69.0017C2029.73 69.1189 2037.56 67.1072 2043.65 62.9666C2049.79 58.7869 2052.85 52.7322 2052.85 44.8025V43.572C2052.85 35.9939 2049.8 30.2908 2043.71 26.4626C2037.62 22.6345 2029.77 20.6619 2020.16 20.5447C2010.47 20.4275 2002.62 22.3416 1996.6 26.2869C1990.59 30.2322 1987.58 35.9744 1987.58 43.5134V44.6853ZM2166.88 103.865V87.1658H2102.19V103.865H2080.39V64.9587H2188.67V103.865H2166.88ZM2098.85 1.85327H2176.43V87.0486H2153.34V24.0603H2118.42L2117.3 44.2166C2116.8 52.7322 2115.86 58.8845 2114.49 62.6736C2113.16 66.4626 2111.43 69.9587 2109.28 73.1619H2086.84C2090.2 68.6306 2092.48 64.3728 2093.69 60.3884C2094.94 56.4041 2095.82 50.5447 2096.33 42.8103L2098.85 1.85327ZM2282.83 87.1658H2259.75V60.3298H2226.35L2223.12 59.3337C2214.41 58.7087 2207.66 55.7986 2202.85 50.6033C2198.09 45.408 2195.7 38.7087 2195.7 30.5056C2195.7 21.7556 2198.48 14.8025 2204.02 9.64624C2209.61 4.45093 2216.91 1.85327 2225.94 1.85327H2282.83V87.1658ZM2259.75 41.2869V21.8337H2231.86C2227.64 21.8337 2224.45 22.6931 2222.3 24.4119C2220.16 26.1306 2219.08 28.5525 2219.08 31.6775C2219.08 34.7244 2220.14 37.0876 2222.25 38.7673C2224.39 40.447 2227.6 41.2869 2231.86 41.2869H2259.75ZM2217.27 87.1658H2192.6L2218.2 49.6658H2242.46L2217.27 87.1658ZM2294.32 23.9431V1.85327H2386.13V23.9431H2351.91V87.1658H2328.54V23.9431H2294.32ZM2429.49 45.0955V43.865C2429.49 29.3728 2434.71 18.4548 2445.14 11.1111C2455.61 3.76733 2469.14 0.095459 2485.74 0.095459C2502.23 0.095459 2514.51 2.90796 2522.6 8.53296C2530.72 14.158 2535.9 22.9861 2538.12 35.0173L2538.48 37.5369H2515.33L2514.98 35.4861C2513.46 30.7986 2510.55 27.1072 2506.25 24.4119C2501.95 21.6775 2495.33 20.3103 2486.39 20.3103C2476.11 20.3103 2468.16 22.3806 2462.54 26.5212C2456.95 30.6228 2454.16 36.365 2454.16 43.7478V45.0369C2454.16 53.3962 2457.03 59.49 2462.77 63.3181C2468.55 67.1072 2476.43 69.0017 2486.39 69.0017C2495.8 69.0017 2502.71 67.6931 2507.13 65.0759C2511.58 62.4197 2514.26 58.7478 2515.16 54.0603L2515.45 51.7751H2538.48L2538.24 54.3533C2537.07 66.1111 2532.29 74.822 2523.89 80.4861C2515.53 86.1111 2502.89 88.9236 2485.98 88.9236C2468.87 88.9236 2455.18 85.1736 2444.9 77.6736C2434.63 70.1736 2429.49 59.3142 2429.49 45.0955ZM2536.84 87.1658L2580.02 1.6189H2603.63L2646.99 87.1658H2620.33L2594.43 31.7947C2594.04 31.1306 2593.67 30.5056 2593.32 29.9197C2593.01 29.3337 2592.73 28.865 2592.5 28.5134H2592.44C2592.25 28.865 2591.97 29.3728 2591.62 30.0369C2591.31 30.6619 2590.98 31.3064 2590.62 31.9705L2564.61 87.1658H2536.84ZM2558.81 71.2283L2566.6 52.2439H2617.58L2625.14 71.2283H2558.81ZM2653.55 87.1658V1.85327H2682.27L2713.73 53.24C2714.24 54.1384 2714.59 54.7634 2714.79 55.115C2715.02 55.4666 2715.21 55.8572 2715.37 56.2869H2715.49C2715.68 55.8572 2715.86 55.4861 2716.02 55.1736C2716.21 54.8611 2716.58 54.2166 2717.13 53.24L2748.77 1.85327H2778.18V87.1658H2755.51L2755.62 40.5837C2755.62 39.8416 2755.66 39.2556 2755.74 38.8259C2755.82 38.3962 2755.86 37.8298 2755.86 37.1267H2755.45C2755.1 37.8298 2754.8 38.3962 2754.57 38.8259C2754.34 39.2556 2754.04 39.8025 2753.69 40.4666L2725.33 87.1658H2709.04L2679.69 39.822C2679.22 39.0408 2678.89 38.4939 2678.69 38.1814C2678.54 37.8298 2678.24 37.2048 2677.81 36.3064H2677.4C2677.44 37.283 2677.48 37.947 2677.52 38.2986C2677.6 38.6501 2677.64 39.197 2677.64 39.9392L2677.75 87.1658H2653.55ZM2889.57 87.1658H2866.48V40.9353C2866.48 39.7634 2866.5 38.865 2866.54 38.24C2866.58 37.615 2866.6 36.99 2866.6 36.365H2866.37C2866.09 36.9509 2865.72 37.5955 2865.25 38.2986C2864.82 39.0017 2864.08 39.8611 2863.03 40.8767L2825.41 87.1658H2798.69V1.85327H2821.78V46.9119C2821.78 47.8884 2821.78 48.6697 2821.78 49.2556C2821.78 49.8416 2821.78 50.6228 2821.78 51.5994H2822.01C2822.36 50.7791 2822.73 50.1736 2823.12 49.783C2823.52 49.3533 2824.22 48.5916 2825.23 47.4978L2862.85 1.85327H2889.57V87.1658ZM2949.63 87.1658V1.85327H3001.84C3010.82 1.85327 3017.62 3.7478 3022.23 7.53687C3026.88 11.3259 3029.2 16.6189 3029.2 23.4158C3029.2 28.2986 3028.03 32.3806 3025.68 35.6619C3023.34 38.9041 3020.39 41.0916 3016.84 42.2244V42.4587C3021.8 43.1619 3025.84 45.2126 3028.96 48.6111C3032.09 51.9705 3033.65 56.6775 3033.65 62.7322C3033.65 70.6619 3030.76 76.7166 3024.98 80.8962C3019.2 85.0759 3011.91 87.1658 3003.12 87.1658H2949.63ZM2972.13 68.4744H2997.44C3000.96 68.4744 3003.95 67.8103 3006.41 66.4822C3008.91 65.1541 3010.16 62.8494 3010.16 59.5681C3010.16 56.8337 3008.91 54.8611 3006.41 53.6501C3003.95 52.4001 3000.96 51.7751 2997.44 51.7751H2972.13V68.4744ZM2972.13 36.1892H2996.39C2999.75 36.1892 3002.38 35.5447 3004.3 34.2556C3006.25 32.9666 3007.23 31.0916 3007.23 28.6306C3007.23 26.2087 3006.25 24.3728 3004.3 23.1228C3002.38 21.8728 2999.75 21.2478 2996.39 21.2478H2972.13V36.1892ZM3046.72 1.85327H3069.8V27.0486H3099.1C3110.51 27.0095 3118.79 29.7439 3123.95 35.2517C3129.14 40.7205 3131.74 48.0056 3131.74 57.1072C3131.74 66.7166 3129.1 74.1384 3123.83 79.3728C3118.55 84.5681 3110.45 87.1658 3099.51 87.1658H3046.72V1.85327ZM3069.8 47.7908V66.658H3094.53C3099.53 66.658 3103.12 65.9548 3105.31 64.5486C3107.54 63.1423 3108.65 60.7595 3108.65 57.4001C3108.65 54.3142 3107.54 51.9509 3105.31 50.3103C3103.12 48.6306 3099.53 47.7908 3094.53 47.7908H3069.8ZM3139.36 87.1658H3162.73V1.85327H3139.36V87.1658ZM3215 45.0955V43.865C3215 29.3728 3220.21 18.4548 3230.64 11.1111C3241.11 3.76733 3254.65 0.095459 3271.25 0.095459C3287.73 0.095459 3300.02 2.90796 3308.11 8.53296C3316.23 14.158 3321.41 22.9861 3323.63 35.0173L3323.98 37.5369H3300.84L3300.49 35.4861C3298.96 30.7986 3296.05 27.1072 3291.76 24.4119C3287.46 21.6775 3280.84 20.3103 3271.89 20.3103C3261.62 20.3103 3253.67 22.3806 3248.05 26.5212C3242.46 30.6228 3239.67 36.365 3239.67 43.7478V45.0369C3239.67 53.3962 3242.54 59.49 3248.28 63.3181C3254.06 67.1072 3261.93 69.0017 3271.89 69.0017C3281.31 69.0017 3288.22 67.6931 3292.64 65.0759C3297.09 62.4197 3299.77 58.7478 3300.66 54.0603L3300.96 51.7751H3323.98L3323.75 54.3533C3322.58 66.1111 3317.79 74.822 3309.39 80.4861C3301.04 86.1111 3288.4 88.9236 3271.48 88.9236C3254.38 88.9236 3240.68 85.1736 3230.41 77.6736C3220.14 70.1736 3215 59.3142 3215 45.0955ZM3328.09 44.3337V43.572C3328.09 29.3923 3333.52 18.6111 3344.38 11.2283C3355.27 3.8064 3368.71 0.095459 3384.69 0.095459C3400.66 0.095459 3414.14 3.8064 3425.12 11.2283C3436.09 18.6111 3441.58 29.3923 3441.58 43.572V44.3337C3441.58 59.0603 3436.09 70.1736 3425.12 77.6736C3414.14 85.1736 3400.66 88.9236 3384.69 88.9236C3368.71 88.9236 3355.27 85.1736 3344.38 77.6736C3333.52 70.1736 3328.09 59.0603 3328.09 44.3337ZM3352.23 44.6853C3352.23 52.6931 3355.25 58.7283 3361.31 62.7908C3367.36 66.8533 3375.2 68.9236 3384.8 69.0017C3394.38 69.1189 3402.21 67.1072 3408.3 62.9666C3414.43 58.7869 3417.5 52.7322 3417.5 44.8025V43.572C3417.5 35.9939 3414.45 30.2908 3408.36 26.4626C3402.27 22.6345 3394.41 20.6619 3384.8 20.5447C3375.12 20.4275 3367.27 22.3416 3361.25 26.2869C3355.23 30.2322 3352.23 35.9744 3352.23 43.5134V44.6853ZM3494.67 68.5916C3502.32 68.6306 3507.87 68.1423 3511.31 67.1267C3514.79 66.072 3516.52 63.8845 3516.52 60.5642C3516.52 58.2205 3515 56.5798 3511.95 55.6423C3508.95 54.6658 3504.36 54.1775 3498.18 54.1775H3480.66V34.4314H3498.42C3503.46 34.4314 3507.3 33.8845 3509.96 32.7908C3512.62 31.697 3513.96 29.8416 3514 27.2244C3514 25.3494 3512.5 23.7478 3509.49 22.4197C3506.48 21.0916 3501.52 20.4275 3494.61 20.4275C3486.05 20.4275 3479.73 21.5408 3475.62 23.7673C3471.52 25.9939 3469.3 28.8064 3468.95 32.2048L3468.71 34.4314H3446.45L3446.68 31.7361C3447.38 21.5798 3451.82 13.8259 3459.98 8.47437C3468.18 3.1228 3479.77 0.447021 3494.73 0.447021C3509.41 0.447021 3520.27 2.59546 3527.3 6.89233C3534.34 11.1892 3537.83 16.9314 3537.79 24.1189C3537.79 28.4939 3536.29 32.322 3533.28 35.6033C3530.27 38.8455 3526.27 41.072 3521.27 42.283V42.5173C3527.01 43.2986 3531.68 45.3103 3535.27 48.5525C3538.87 51.7947 3540.66 56.3064 3540.66 62.0876C3540.66 69.9392 3536.62 76.3259 3528.54 81.2478C3520.49 86.1306 3509.2 88.572 3494.67 88.572C3479.28 88.572 3467.44 86.1111 3459.16 81.1892C3450.92 76.2283 3446.52 68.3572 3445.98 57.5759L3445.86 55.3494H3468.12L3468.3 57.2244C3468.61 61.4431 3470.92 64.3923 3475.21 66.072C3479.51 67.7517 3486 68.5916 3494.67 68.5916ZM3629.26 103.865V87.1658H3564.57V103.865H3542.77V64.9587H3651.05V103.865H3629.26ZM3561.23 1.85327H3638.81V87.0486H3615.72V24.0603H3580.8L3579.69 44.2166C3579.18 52.7322 3578.24 58.8845 3576.88 62.6736C3575.55 66.4626 3573.81 69.9587 3571.66 73.1619H3549.22C3552.58 68.6306 3554.86 64.3728 3556.07 60.3884C3557.32 56.4041 3558.2 50.5447 3558.71 42.8103L3561.23 1.85327ZM3649.06 87.1658L3692.25 1.6189H3715.86L3759.22 87.1658H3732.56L3706.66 31.7947C3706.27 31.1306 3705.9 30.5056 3705.55 29.9197C3705.23 29.3337 3704.96 28.865 3704.73 28.5134H3704.67C3704.47 28.865 3704.2 29.3728 3703.85 30.0369C3703.54 30.6619 3703.2 31.3064 3702.85 31.9705L3676.84 87.1658H3649.06ZM3671.04 71.2283L3678.83 52.2439H3729.8L3737.36 71.2283H3671.04ZM3766.43 87.1658V1.85327H3843.24V23.533H3788.22V34.3142H3838.09V53.7673H3788.22V66.1306H3844.12V87.1658H3766.43ZM3851.04 23.9431V1.85327H3942.85V23.9431H3908.63V87.1658H3885.25V23.9431H3851.04ZM3954.28 87.1658V1.85327H4031.09V23.533H3976.07V34.3142H4025.94V53.7673H3976.07V66.1306H4031.97V87.1658H3954.28ZM4178.4 87.1658H4155.31V40.9353C4155.31 39.7634 4155.33 38.865 4155.37 38.24C4155.41 37.615 4155.43 36.99 4155.43 36.365H4155.2C4154.92 36.9509 4154.55 37.5955 4154.08 38.2986C4153.65 39.0017 4152.91 39.8611 4151.86 40.8767L4114.24 87.1658H4087.52V1.85327H4110.61V46.9119C4110.61 47.8884 4110.61 48.6697 4110.61 49.2556C4110.61 49.8416 4110.61 50.6228 4110.61 51.5994H4110.84C4111.19 50.7791 4111.56 50.1736 4111.95 49.783C4112.34 49.3533 4113.05 48.5916 4114.06 47.4978L4151.68 1.85327H4178.4V87.1658ZM4185.08 87.1658L4224.98 38.3572L4229.08 37.7126L4257.56 1.85327H4284.1L4245.37 49.6072L4241.33 50.3689L4212.27 87.1658H4185.08ZM4187.66 1.85327H4214.9L4242.62 36.658L4242.85 37.4197L4283.81 87.1658H4256.27L4226.5 50.4275L4226.33 49.6658L4187.66 1.85327Z" fill="white"/>
</svg>
